<svg width="307" height="142" viewBox="0 0 307 142" fill="none" xmlns="http://www.w3.org/2000/svg">
<g filter="url(#filter0_d_89_448)">
<rect x="17" width="273" height="108" rx="25.5" fill="url(#paint0_linear_89_448)"/>
<rect x="23.375" y="6.375" width="260.25" height="95.25" rx="19.125" stroke="white" stroke-opacity="0.3" stroke-width="12.75" style="mix-blend-mode:lighten"/>
</g>
<path d="M106.405 38.7273L111.609 55.7727H111.803L117.007 38.7273H123.303L115.45 62H107.962L100.109 38.7273H106.405ZM131.862 62.3295C130.029 62.3295 128.453 61.9545 127.135 61.2045C125.824 60.447 124.813 59.3939 124.101 58.0455C123.396 56.6894 123.044 55.1174 123.044 53.3295C123.044 51.5341 123.396 49.9621 124.101 48.6136C124.813 47.2576 125.824 46.2045 127.135 45.4545C128.453 44.697 130.029 44.3182 131.862 44.3182C133.696 44.3182 135.268 44.697 136.578 45.4545C137.896 46.2045 138.908 47.2576 139.612 48.6136C140.324 49.9621 140.68 51.5341 140.68 53.3295C140.68 55.1174 140.324 56.6894 139.612 58.0455C138.908 59.3939 137.896 60.447 136.578 61.2045C135.268 61.9545 133.696 62.3295 131.862 62.3295ZM131.896 58.1364C132.563 58.1364 133.127 57.9318 133.589 57.5227C134.052 57.1136 134.404 56.5455 134.646 55.8182C134.896 55.0909 135.021 54.25 135.021 53.2955C135.021 52.3258 134.896 51.4773 134.646 50.75C134.404 50.0227 134.052 49.4545 133.589 49.0455C133.127 48.6364 132.563 48.4318 131.896 48.4318C131.207 48.4318 130.624 48.6364 130.146 49.0455C129.677 49.4545 129.317 50.0227 129.067 50.75C128.824 51.4773 128.703 52.3258 128.703 53.2955C128.703 54.25 128.824 55.0909 129.067 55.8182C129.317 56.5455 129.677 57.1136 130.146 57.5227C130.624 57.9318 131.207 58.1364 131.896 58.1364ZM149.084 38.7273V62H143.527V38.7273H149.084ZM162.473 44.5455V48.6364H151.462V44.5455H162.473ZM153.768 40.3636H159.325V56.5114C159.325 56.8523 159.378 57.1288 159.484 57.3409C159.598 57.5455 159.761 57.6932 159.973 57.7841C160.185 57.8674 160.439 57.9091 160.734 57.9091C160.946 57.9091 161.17 57.8902 161.405 57.8523C161.647 57.8068 161.829 57.7689 161.95 57.7386L162.791 61.75C162.526 61.8258 162.151 61.9205 161.666 62.0341C161.189 62.1477 160.617 62.2197 159.95 62.25C158.647 62.3106 157.53 62.1591 156.598 61.7955C155.674 61.4242 154.965 60.8485 154.473 60.0682C153.988 59.2879 153.753 58.3068 153.768 57.125V40.3636ZM170.229 62.2955C169.115 62.2955 168.126 62.1098 167.263 61.7386C166.407 61.3598 165.729 60.7917 165.229 60.0341C164.736 59.2689 164.49 58.3106 164.49 57.1591C164.49 56.1894 164.661 55.3712 165.001 54.7045C165.342 54.0379 165.812 53.4962 166.411 53.0795C167.009 52.6629 167.698 52.3485 168.479 52.1364C169.259 51.9167 170.092 51.7689 170.979 51.6932C171.971 51.6023 172.77 51.5076 173.376 51.4091C173.982 51.303 174.422 51.1553 174.695 50.9659C174.975 50.7689 175.115 50.4924 175.115 50.1364V50.0795C175.115 49.4962 174.914 49.0455 174.513 48.7273C174.111 48.4091 173.57 48.25 172.888 48.25C172.153 48.25 171.562 48.4091 171.115 48.7273C170.668 49.0455 170.384 49.4848 170.263 50.0455L165.138 49.8636C165.289 48.803 165.679 47.8561 166.308 47.0227C166.945 46.1818 167.816 45.5227 168.922 45.0455C170.036 44.5606 171.373 44.3182 172.933 44.3182C174.047 44.3182 175.073 44.4508 176.013 44.7159C176.952 44.9735 177.77 45.3523 178.467 45.8523C179.164 46.3447 179.702 46.9508 180.081 47.6705C180.467 48.3902 180.661 49.2121 180.661 50.1364V62H175.433V59.5682H175.297C174.986 60.1591 174.589 60.6591 174.104 61.0682C173.626 61.4773 173.062 61.7841 172.411 61.9886C171.767 62.1932 171.039 62.2955 170.229 62.2955ZM171.945 58.6591C172.543 58.6591 173.081 58.5379 173.558 58.2955C174.043 58.053 174.429 57.7197 174.717 57.2955C175.005 56.8636 175.149 56.3636 175.149 55.7955V54.1364C174.99 54.2197 174.797 54.2955 174.57 54.3636C174.35 54.4318 174.107 54.4962 173.842 54.5568C173.577 54.6174 173.304 54.6705 173.024 54.7159C172.744 54.7614 172.475 54.803 172.217 54.8409C171.695 54.9242 171.248 55.053 170.876 55.2273C170.513 55.4015 170.232 55.6288 170.036 55.9091C169.846 56.1818 169.751 56.5076 169.751 56.8864C169.751 57.4621 169.956 57.9015 170.365 58.2045C170.782 58.5076 171.308 58.6591 171.945 58.6591ZM184.058 62V44.5455H189.456V47.7273H189.638C189.956 46.5758 190.475 45.7197 191.195 45.1591C191.914 44.5909 192.751 44.3068 193.706 44.3068C193.964 44.3068 194.229 44.3258 194.501 44.3636C194.774 44.3939 195.028 44.4432 195.263 44.5114V49.3409C194.998 49.25 194.649 49.178 194.217 49.125C193.793 49.072 193.414 49.0455 193.081 49.0455C192.422 49.0455 191.827 49.1932 191.297 49.4886C190.774 49.7765 190.361 50.1818 190.058 50.7045C189.763 51.2197 189.615 51.8258 189.615 52.5227V62H184.058ZM204.061 38.7273L203.538 54.875H198.868L198.345 38.7273H204.061ZM201.197 62.3295C200.387 62.3295 199.69 62.0417 199.107 61.4659C198.531 60.8902 198.243 60.1932 198.243 59.375C198.243 58.572 198.531 57.8864 199.107 57.3182C199.69 56.7424 200.387 56.4545 201.197 56.4545C201.978 56.4545 202.663 56.7424 203.254 57.3182C203.853 57.8864 204.152 58.572 204.152 59.375C204.152 59.9205 204.012 60.4167 203.732 60.8636C203.459 61.3106 203.099 61.6667 202.652 61.9318C202.213 62.197 201.728 62.3295 201.197 62.3295Z" fill="#735000"/>
<defs>
<filter id="filter0_d_89_448" x="0" y="0" width="307" height="142" filterUnits="userSpaceOnUse" color-interpolation-filters="sRGB">
<feFlood flood-opacity="0" result="BackgroundImageFix"/>
<feColorMatrix in="SourceAlpha" type="matrix" values="0 0 0 0 0 0 0 0 0 0 0 0 0 0 0 0 0 0 127 0" result="hardAlpha"/>
<feOffset dy="17"/>
<feGaussianBlur stdDeviation="8.5"/>
<feComposite in2="hardAlpha" operator="out"/>
<feColorMatrix type="matrix" values="0 0 0 0 0 0 0 0 0 0 0 0 0 0 0 0 0 0 0.25 0"/>
<feBlend mode="normal" in2="BackgroundImageFix" result="effect1_dropShadow_89_448"/>
<feBlend mode="normal" in="SourceGraphic" in2="effect1_dropShadow_89_448" result="shape"/>
</filter>
<linearGradient id="paint0_linear_89_448" x1="153.5" y1="0" x2="153.5" y2="108" gradientUnits="userSpaceOnUse">
<stop stop-color="#EACE5D"/>
<stop offset="1" stop-color="#FFB300"/>
</linearGradient>
</defs>
</svg>
