<svg width="60" height="60" viewBox="0 0 60 60" fill="none" xmlns="http://www.w3.org/2000/svg">
<ellipse cx="30" cy="30" rx="30" ry="30" fill="url(#paint0_linear_17_1002)"/>
<path d="M30 1.5C45.7401 1.50001 58.5 14.2599 58.5 30C58.5 45.7401 45.7401 58.5 30 58.5C14.2599 58.5 1.5 45.7401 1.5 30C1.5 14.2599 14.2599 1.5 30 1.5Z" stroke="white" stroke-opacity="0.3" stroke-width="3" style="mix-blend-mode:lighten"/>
<path d="M40.5001 22.0833V17.3333C40.5001 16.9134 40.3421 16.5107 40.0608 16.2137C39.7795 15.9168 39.3979 15.75 39.0001 15.75H19.5001C18.7045 15.75 17.9414 16.0836 17.3788 16.6775C16.8162 17.2714 16.5001 18.0768 16.5001 18.9167M16.5001 18.9167C16.5001 19.7565 16.8162 20.562 17.3788 21.1558C17.9414 21.7497 18.7045 22.0833 19.5001 22.0833H42.0001C42.3979 22.0833 42.7795 22.2501 43.0608 22.5471C43.3421 22.844 43.5001 23.2467 43.5001 23.6667V30M16.5001 18.9167V41.0833C16.5001 41.9232 16.8162 42.7286 17.3788 43.3225C17.9414 43.9164 18.7045 44.25 19.5001 44.25H42.0001C42.3979 44.25 42.7795 44.0832 43.0608 43.7863C43.3421 43.4893 43.5001 43.0866 43.5001 42.6667V36.3333M43.5001 30H39.0001C38.2045 30 37.4414 30.3336 36.8788 30.9275C36.3162 31.5214 36.0001 32.3268 36.0001 33.1667C36.0001 34.0065 36.3162 34.812 36.8788 35.4058C37.4414 35.9997 38.2045 36.3333 39.0001 36.3333H43.5001M43.5001 30C43.8979 30 44.2795 30.1668 44.5608 30.4637C44.8421 30.7607 45.0001 31.1634 45.0001 31.5833V34.75C45.0001 35.1699 44.8421 35.5727 44.5608 35.8696C44.2795 36.1665 43.8979 36.3333 43.5001 36.3333" stroke="white" stroke-width="2" stroke-linecap="round" stroke-linejoin="round"/>
<defs>
<linearGradient id="paint0_linear_17_1002" x1="30" y1="0" x2="30" y2="60" gradientUnits="userSpaceOnUse">
<stop stop-color="#8BDEFF"/>
<stop offset="1" stop-color="#50A4D8"/>
</linearGradient>
</defs>
</svg>
