<svg width="321" height="311" viewBox="0 0 321 311" fill="none" xmlns="http://www.w3.org/2000/svg">
<path d="M62.4863 208.237C64.1998 214.287 80.0837 244.898 89.591 254.634C103.911 269.298 92.2058 297.85 71.7995 295.936C55.7299 294.428 44.3106 280.453 36.8226 269.167C25.2588 251.738 23.6846 211.894 31.0526 199.335C38.4207 186.776 58.9772 195.846 62.4863 208.237Z" fill="#6A2F4B"/>
<path d="M180.526 53.6278L180.526 23.1118C180.526 18.6318 176.894 15 172.414 15V15C167.934 15 164.302 18.6318 164.302 23.1118L164.302 27.2321C164.302 30.7166 161.477 33.5413 157.993 33.5413V33.5413C154.508 33.5413 151.683 30.7166 151.683 27.2321L151.683 24.2707C151.683 19.1506 147.533 15 142.413 15L139.58 15" stroke="#DD73A6" stroke-width="15" stroke-linecap="round"/>
<path d="M224.07 261.76C214.336 254.097 212.773 239.943 220.599 230.34C228.426 220.737 242.603 219.413 252.073 227.4L287.543 257.315C296.463 264.839 297.705 278.125 290.332 287.172C282.96 296.218 269.696 297.683 260.527 290.464L224.07 261.76Z" fill="#FFB1D7"/>
<path d="M260.603 290.495C259.97 289.997 259.868 289.077 260.377 288.453L285.572 257.538C286.081 256.914 287.003 256.828 287.618 257.347V257.347C296.539 264.871 297.78 278.157 290.408 287.203C283.035 296.25 269.772 297.715 260.603 290.495V290.495Z" fill="#DD73A6"/>
<path d="M257.05 69.3698C248.077 77.911 233.845 77.44 225.456 68.3243C217.068 59.2086 217.778 44.9868 227.034 36.7528L261.701 5.91199C270.421 -1.84468 283.748 -1.17872 291.651 7.40851C299.553 15.9957 299.112 29.3329 290.659 37.3788L257.05 69.3698Z" fill="#DD73A6"/>
<path d="M261.983 5.25343C261.372 5.77861 261.311 6.7021 261.846 7.30355L288.363 37.0927C288.899 37.6941 289.823 37.74 290.415 37.1947V37.1947C299 29.2897 299.662 15.9617 291.903 7.24499C284.144 -1.47174 270.829 -2.35801 261.983 5.25343V5.25343Z" fill="#C16290"/>
<path d="M247.793 220.402C235.85 217.108 228.926 204.666 232.421 192.78C235.916 180.895 248.473 174.182 260.298 177.876L304.586 191.714C315.725 195.195 322.017 206.963 318.725 218.159C315.433 229.355 303.772 235.844 292.522 232.741L247.793 220.402Z" fill="#DD73A6"/>
<path d="M293.377 233.058C292.601 232.844 292.151 232.036 292.378 231.263L303.629 193.001C303.856 192.229 304.673 191.793 305.441 192.033V192.033C316.58 195.513 322.872 207.281 319.58 218.477C316.287 229.673 304.627 236.162 293.377 233.058V233.058Z" fill="#C16290"/>
<path d="M129.727 262.588C86.1001 261.089 51.5085 225.288 51.5085 181.636L51.5085 113.351C51.5085 69.6984 86.1001 33.8977 129.727 32.3985L192.541 30.24C238.339 28.6662 276.322 65.3666 276.322 111.192L276.322 183.795C276.322 229.62 238.339 266.321 192.541 264.747L129.727 262.588Z" fill="#FFB1D7"/>
<path d="M100.514 150.834L136.84 113.865M98.5144 116.151L138.591 149.016" stroke="#6A2F4B" stroke-width="6" stroke-linecap="round"/>
<path d="M106.514 239.834L142.84 202.865M104.514 205.151L144.591 238.016" stroke="#6A2F4B" stroke-width="6" stroke-linecap="round"/>
<path d="M186.789 242.131C162.933 242.131 143.344 223.275 142.435 199.436L141.898 185.349L142.435 171.261C143.344 147.422 162.933 128.566 186.789 128.566C211.434 128.566 231.361 148.645 231.173 173.29L231.081 185.349L231.173 197.407C231.361 222.052 211.434 242.131 186.789 242.131Z" fill="#DD73A6"/>
<path d="M189.356 161.945C199.538 164.312 206.656 171.115 205.255 177.141C203.855 183.168 194.465 186.134 184.283 183.767C174.101 181.4 166.983 174.596 168.383 168.57C169.784 162.544 179.174 159.578 189.356 161.945Z" fill="#6A2F4B"/>
<path d="M189.356 217.759C199.538 215.392 206.656 208.588 205.255 202.562C203.855 196.536 194.465 193.57 184.283 195.937C174.101 198.304 166.983 205.108 168.383 211.134C169.784 217.16 179.174 220.126 189.356 217.759Z" fill="#6A2F4B"/>
<path d="M62.4863 120.245C64.1998 114.195 80.0837 83.5831 89.591 73.8474C103.911 59.1837 92.2058 30.6312 71.7995 32.5455C55.7299 34.0531 44.3106 48.0287 36.8227 59.3144C25.2588 76.7432 23.6846 116.587 31.0526 129.146C38.4207 141.706 58.9772 132.635 62.4863 120.245Z" fill="#6A2F4B"/>
<path d="M263.73 114.638C252.635 120.149 239.177 115.496 233.855 104.309C228.532 93.1228 233.411 79.7452 244.686 74.6118L286.915 55.3847C297.536 50.5489 310.072 55.1211 315.086 65.6591C320.1 76.1971 315.74 88.809 305.288 93.9998L263.73 114.638Z" fill="#FFB1D7"/>
<path d="M288.886 54.4713C288.148 54.7928 287.817 55.6569 288.151 56.3897L304.688 92.6813C305.022 93.4139 305.891 93.7308 306.618 93.3846V93.3846C317.155 88.3676 321.723 75.8296 316.884 65.2101C312.045 54.5907 299.586 49.8118 288.886 54.4713V54.4713Z" fill="#DD73A6"/>
<path d="M216.515 87.8335C223.694 87.8335 229.515 93.6538 229.515 100.834C229.515 108.013 223.694 113.834 216.515 113.834C209.335 113.834 203.515 108.013 203.515 100.834C203.515 93.6538 209.335 87.8335 216.515 87.8335Z" fill="#6A2F4B"/>
<path d="M220.51 82.3299C224.51 87.8244 223.66 95.4624 218.55 99.9434C213.441 104.424 205.757 104.27 200.832 99.5867L196.385 95.3586C190.548 89.8082 190.736 80.4435 196.792 75.1325C202.848 69.8216 212.157 70.8571 216.898 77.3692L220.51 82.3299Z" fill="#DD7374"/>
<path d="M203.393 87.9546C202.222 86.783 202.222 84.884 203.393 83.7124C204.565 82.5409 206.464 82.5409 207.636 83.7124L218.636 94.7124C219.807 95.884 219.807 97.783 218.636 98.9546C217.464 100.126 215.565 100.126 214.393 98.9546L203.393 87.9546Z" fill="#C16264"/>
</svg>
