<svg width="321" height="311" viewBox="0 0 321 311" fill="none" xmlns="http://www.w3.org/2000/svg">
<path d="M62.3095 102.829C64.023 96.7791 79.9069 66.1677 89.4142 56.432C103.734 41.7683 92.029 13.2158 71.6227 15.1301C55.5531 16.6377 44.1338 30.6133 36.6458 41.899C25.082 59.3278 23.5077 99.1714 30.8758 111.731C38.2439 124.29 58.8003 115.22 62.3095 102.829Z" fill="#6A2F4B"/>
<path d="M180.349 257.438L180.349 287.954C180.349 292.434 176.717 296.066 172.237 296.066V296.066C167.757 296.066 164.125 292.434 164.125 287.954L164.125 283.834C164.125 280.349 161.3 277.525 157.816 277.525V277.525C154.331 277.525 151.507 280.349 151.507 283.834L151.507 286.795C151.507 291.915 147.356 296.066 142.236 296.066L139.403 296.066" stroke="#DD73A6" stroke-width="15" stroke-linecap="round"/>
<path d="M223.893 49.3058C214.16 56.9692 212.596 71.1226 220.423 80.7256C228.249 90.3286 242.427 91.6533 251.896 83.6663L287.366 53.7511C296.287 46.2272 297.528 32.9406 290.155 23.8944C282.783 14.8481 269.519 13.3831 260.35 20.6022L223.893 49.3058Z" fill="#FFB1D7"/>
<path d="M260.426 20.5706C259.793 21.0687 259.692 21.9887 260.2 22.6128L285.396 53.5279C285.904 54.1521 286.826 54.2382 287.441 53.7191C296.362 46.1953 297.604 32.9088 290.231 23.8626C282.859 14.8164 269.595 13.3514 260.426 20.5706Z" fill="#DD73A6"/>
<path d="M256.873 241.696C247.9 233.155 233.668 233.626 225.28 242.742C216.891 251.857 217.601 266.079 226.857 274.313L261.525 305.154C270.244 312.911 283.572 312.245 291.474 303.657C299.376 295.07 298.935 281.733 290.482 273.687L256.873 241.696Z" fill="#DD73A6"/>
<path d="M261.806 305.813C261.196 305.287 261.134 304.364 261.669 303.762L288.187 273.973C288.722 273.372 289.646 273.326 290.239 273.871C298.823 281.776 299.486 295.104 291.726 303.821C283.967 312.538 270.652 313.424 261.806 305.813Z" fill="#C16290"/>
<path d="M247.616 90.6637C235.673 93.9579 228.749 106.4 232.244 118.286C235.739 130.171 248.296 136.884 260.121 133.19L304.41 119.352C315.549 115.871 321.84 104.103 318.548 92.9071C315.256 81.7111 303.595 75.222 292.345 78.3253L247.616 90.6637Z" fill="#DD73A6"/>
<path d="M293.2 78.0075C292.424 78.2216 291.974 79.0304 292.201 79.8029L303.452 118.065C303.68 118.837 304.496 119.273 305.264 119.033C316.403 115.553 322.695 103.785 319.403 92.5891C316.11 81.3932 304.45 74.9042 293.2 78.0075Z" fill="#C16290"/>
<path d="M129.55 48.4777C85.9233 49.9769 51.3317 85.7777 51.3317 129.43L51.3317 197.715C51.3317 241.367 85.9233 277.168 129.55 278.667L192.364 280.826C238.162 282.4 276.146 245.699 276.146 199.874L276.146 127.271C276.146 81.4458 238.162 44.7453 192.364 46.3192L129.55 48.4777Z" fill="#FFB1D7"/>
<path d="M100.338 160.232L136.663 197.201M98.3375 194.915L138.414 162.05" stroke="#6A2F4B" stroke-width="6" stroke-linecap="round"/>
<path d="M106.338 71.2324L142.663 108.201M104.338 105.915L144.414 73.0502" stroke="#6A2F4B" stroke-width="6" stroke-linecap="round"/>
<path d="M186.612 68.9345C162.756 68.9344 143.167 87.7911 142.258 111.63L141.721 125.717L142.258 139.805C143.167 163.644 162.756 182.5 186.612 182.5C211.258 182.5 231.184 162.421 230.996 137.776L230.904 125.717L230.996 113.659C231.184 89.0136 211.258 68.9345 186.612 68.9345Z" fill="#DD73A6"/>
<path d="M189.179 149.121C199.361 146.754 206.479 139.95 205.079 133.924C203.678 127.898 194.288 124.932 184.106 127.299C173.924 129.666 166.806 136.47 168.207 142.496C169.607 148.522 178.997 151.488 189.179 149.121Z" fill="#6A2F4B"/>
<path d="M189.179 93.3067C199.361 95.6736 206.479 102.477 205.079 108.504C203.678 114.53 194.288 117.496 184.106 115.129C173.924 112.762 166.806 105.958 168.207 99.932C169.607 93.906 178.997 90.9397 189.179 93.3067Z" fill="#6A2F4B"/>
<path d="M62.3094 190.821C64.0229 196.871 79.9068 227.483 89.4141 237.218C103.734 251.882 92.0289 280.435 71.6226 278.52C55.5531 277.013 44.1337 263.037 36.6458 251.751C25.0819 234.323 23.5077 194.479 30.8758 181.92C38.2439 169.36 58.8003 178.431 62.3094 190.821Z" fill="#6A2F4B"/>
<path d="M263.554 196.427C252.458 190.917 239 195.57 233.678 206.757C228.355 217.943 233.234 231.321 244.509 236.454L286.738 255.681C297.359 260.517 309.896 255.945 314.91 245.407C319.924 234.869 315.563 222.257 305.111 217.066L263.554 196.427Z" fill="#FFB1D7"/>
<path d="M288.71 256.595C287.971 256.273 287.64 255.409 287.974 254.676L304.511 218.385C304.845 217.652 305.714 217.335 306.441 217.681C316.978 222.698 321.546 235.236 316.707 245.856C311.868 256.475 299.409 261.254 288.71 256.595Z" fill="#DD73A6"/>
<path d="M216.338 223.232C223.517 223.232 229.338 217.412 229.338 210.232C229.338 203.053 223.517 197.232 216.338 197.232C209.158 197.232 203.338 203.053 203.338 210.232C203.338 217.412 209.158 223.232 216.338 223.232Z" fill="#6A2F4B"/>
<path d="M220.333 228.736C224.333 223.242 223.483 215.604 218.373 211.123C213.264 206.641 205.58 206.796 200.655 211.479L196.208 215.707C190.371 221.258 190.559 230.622 196.615 235.933C202.671 241.244 211.98 240.209 216.721 233.697L220.333 228.736Z" fill="#DD7374"/>
<path d="M203.216 223.111C202.045 224.283 202.045 226.182 203.216 227.354C204.388 228.525 206.287 228.525 207.459 227.354L218.459 216.354C219.63 215.182 219.63 213.283 218.459 212.111C217.287 210.94 215.388 210.94 214.216 212.111L203.216 223.111Z" fill="#C16264"/>
</svg>
