<svg width="24" height="24" viewBox="0 0 24 24" fill="none" xmlns="http://www.w3.org/2000/svg">
<circle cx="12" cy="12" r="12" fill="#59ADDE"/>
<g clip-path="url(#clip0_17_1069)">
<path d="M14 7.33333L16.6666 10M18.116 8.54126C18.4685 8.18888 18.6665 7.71091 18.6666 7.2125C18.6666 6.71409 18.4687 6.23607 18.1163 5.8836C17.7639 5.53112 17.286 5.33307 16.7876 5.33301C16.2892 5.33295 15.8111 5.53088 15.4587 5.88326L6.56133 14.7826C6.40654 14.9369 6.29207 15.127 6.228 15.3359L5.34733 18.2373C5.3301 18.2949 5.3288 18.3562 5.34356 18.4145C5.35833 18.4728 5.38861 18.5261 5.43119 18.5686C5.47378 18.6111 5.52708 18.6413 5.58544 18.656C5.64379 18.6707 5.70504 18.6693 5.76266 18.6519L8.66466 17.7719C8.87344 17.7084 9.06345 17.5947 9.218 17.4406L18.116 8.54126Z" stroke="#DAF7FF" stroke-width="1.5" stroke-linecap="round" stroke-linejoin="round"/>
</g>
<defs>
<clipPath id="clip0_17_1069">
<rect width="16" height="16" fill="white" transform="translate(4 4)"/>
</clipPath>
</defs>
</svg>
