<svg width="307" height="142" viewBox="0 0 307 142" fill="none" xmlns="http://www.w3.org/2000/svg">
<g filter="url(#filter0_d_82_444)">
<rect x="17" width="273" height="108" rx="25.5" fill="url(#paint0_linear_82_444)"/>
<rect x="23.375" y="6.375" width="260.25" height="95.25" rx="19.125" stroke="white" stroke-opacity="0.3" stroke-width="12.75" style="mix-blend-mode:lighten"/>
</g>
<path d="M147.93 50.3636C147.93 52.9242 147.438 55.0947 146.453 56.875C145.468 58.6553 144.135 60.0076 142.453 60.9318C140.779 61.8561 138.9 62.3182 136.817 62.3182C134.726 62.3182 132.843 61.8523 131.169 60.9205C129.495 59.9886 128.165 58.6364 127.18 56.8636C126.203 55.0833 125.714 52.9167 125.714 50.3636C125.714 47.803 126.203 45.6326 127.18 43.8523C128.165 42.072 129.495 40.7197 131.169 39.7955C132.843 38.8712 134.726 38.4091 136.817 38.4091C138.9 38.4091 140.779 38.8712 142.453 39.7955C144.135 40.7197 145.468 42.072 146.453 43.8523C147.438 45.6326 147.93 47.803 147.93 50.3636ZM142.18 50.3636C142.18 48.8485 141.964 47.5682 141.533 46.5227C141.108 45.4773 140.495 44.6856 139.692 44.1477C138.896 43.6098 137.938 43.3409 136.817 43.3409C135.703 43.3409 134.745 43.6098 133.942 44.1477C133.139 44.6856 132.521 45.4773 132.089 46.5227C131.665 47.5682 131.453 48.8485 131.453 50.3636C131.453 51.8788 131.665 53.1591 132.089 54.2045C132.521 55.25 133.139 56.0417 133.942 56.5795C134.745 57.1174 135.703 57.3864 136.817 57.3864C137.938 57.3864 138.896 57.1174 139.692 56.5795C140.495 56.0417 141.108 55.25 141.533 54.2045C141.964 53.1591 142.18 51.8788 142.18 50.3636ZM151.214 62V38.7273H156.839V48.5682H157.146L164.839 38.7273H171.464L163.214 49.1136L171.612 62H164.885L159.089 52.8523L156.839 55.6932V62H151.214ZM180.217 38.7273L179.695 54.875H175.024L174.501 38.7273H180.217ZM177.354 62.3295C176.543 62.3295 175.846 62.0417 175.263 61.4659C174.687 60.8902 174.399 60.1932 174.399 59.375C174.399 58.572 174.687 57.8864 175.263 57.3182C175.846 56.7424 176.543 56.4545 177.354 56.4545C178.134 56.4545 178.82 56.7424 179.411 57.3182C180.009 57.8864 180.308 58.572 180.308 59.375C180.308 59.9205 180.168 60.4167 179.888 60.8636C179.615 61.3106 179.255 61.6667 178.808 61.9318C178.369 62.197 177.884 62.3295 177.354 62.3295Z" fill="#735000"/>
<defs>
<filter id="filter0_d_82_444" x="0" y="0" width="307" height="142" filterUnits="userSpaceOnUse" color-interpolation-filters="sRGB">
<feFlood flood-opacity="0" result="BackgroundImageFix"/>
<feColorMatrix in="SourceAlpha" type="matrix" values="0 0 0 0 0 0 0 0 0 0 0 0 0 0 0 0 0 0 127 0" result="hardAlpha"/>
<feOffset dy="17"/>
<feGaussianBlur stdDeviation="8.5"/>
<feComposite in2="hardAlpha" operator="out"/>
<feColorMatrix type="matrix" values="0 0 0 0 0 0 0 0 0 0 0 0 0 0 0 0 0 0 0.25 0"/>
<feBlend mode="normal" in2="BackgroundImageFix" result="effect1_dropShadow_82_444"/>
<feBlend mode="normal" in="SourceGraphic" in2="effect1_dropShadow_82_444" result="shape"/>
</filter>
<linearGradient id="paint0_linear_82_444" x1="153.5" y1="0" x2="153.5" y2="108" gradientUnits="userSpaceOnUse">
<stop stop-color="#EACE5D"/>
<stop offset="1" stop-color="#FFB300"/>
</linearGradient>
</defs>
</svg>
