<svg width="304" height="313" viewBox="0 0 304 313" fill="none" xmlns="http://www.w3.org/2000/svg">
<path d="M102.652 62.4863C96.6022 64.1998 65.9908 80.0838 56.2551 89.591C41.5914 103.911 13.0389 92.2059 14.9533 71.7996C16.4608 55.73 30.4364 44.3107 41.7221 36.8227C59.151 25.2589 98.9945 23.6846 111.554 31.0527C124.113 38.4208 115.043 58.9772 102.652 62.4863Z" fill="#6A2F4B"/>
<path d="M257.261 180.525H287.777C292.257 180.525 295.889 176.894 295.889 172.414V172.414C295.889 167.934 292.257 164.302 287.777 164.302H283.657C280.172 164.302 277.348 161.477 277.348 157.993V157.993C277.348 154.508 280.172 151.683 283.657 151.683L286.618 151.683C291.738 151.683 295.889 147.533 295.889 142.413V139.58" stroke="#DD73A6" stroke-width="15" stroke-linecap="round"/>
<path d="M126.769 233.644C130.063 221.702 142.506 214.778 154.391 218.273C166.276 221.767 172.99 234.325 169.295 246.149L155.457 290.438C151.976 301.577 140.208 307.869 129.012 304.577C117.816 301.284 111.327 289.624 114.431 278.374L126.769 233.644Z" fill="#DD73A6"/>
<path d="M225.85 246.608C221.961 234.846 228.466 222.179 240.291 218.488C252.117 214.797 264.672 221.515 268.164 233.401L281.24 277.921C284.529 289.118 278.234 300.884 267.094 304.361C255.954 307.838 244.083 301.742 240.419 290.662L225.85 246.608Z" fill="#DD73A6"/>
<path d="M53.0707 233.644C56.3649 221.702 68.8074 214.778 80.6925 218.273C92.5775 221.767 99.2913 234.325 95.5967 246.149L81.7585 290.438C78.2781 301.577 66.51 307.869 55.3141 304.577C44.1181 301.284 37.629 289.624 40.7322 278.374L53.0707 233.644Z" fill="#FFB1D7"/>
<path d="M41.1221 277.044L82.1952 289.122L81.7583 290.52C78.278 301.659 66.51 307.951 55.3141 304.659C44.1181 301.366 37.6291 289.706 40.7324 278.456L41.1221 277.044Z" fill="#DD73A6"/>
<path d="M114.502 277.816L155.576 289.894L155.139 291.293C151.658 302.432 139.89 308.723 128.694 305.431C117.498 302.139 111.009 290.479 114.113 279.229L114.502 277.816Z" fill="#C16290"/>
<path d="M170.86 246.608C166.97 234.846 173.476 222.179 185.301 218.488C197.127 214.797 209.682 221.515 213.173 233.401L226.25 277.921C229.539 289.118 223.244 300.884 212.104 304.361C200.964 307.838 189.093 301.742 185.429 290.662L170.86 246.608Z" fill="#FFB1D7"/>
<path d="M48.3008 129.727C49.8 86.1001 85.6008 51.5086 129.253 51.5086H197.538C241.191 51.5086 276.991 86.1002 278.49 129.727L280.649 192.541C282.223 238.339 245.522 276.322 199.697 276.322H127.094C81.2689 276.322 44.5685 238.339 46.1423 192.541L48.3008 129.727Z" fill="#FFB1D7"/>
<ellipse cx="176.915" cy="122.97" rx="33.9925" ry="39.0141" fill="#FFB1D7"/>
<ellipse cx="33.9925" cy="39.0141" rx="33.9925" ry="39.0141" transform="matrix(-1 0 0 1 123.609 83.956)" fill="#FFB1D7"/>
<ellipse cx="176.143" cy="121.425" rx="33.9925" ry="39.0141" fill="#F2F2F2"/>
<ellipse cx="33.9925" cy="39.0141" rx="33.9925" ry="39.0141" transform="matrix(-1 0 0 1 124.382 82.4109)" fill="#F2F2F2"/>
<circle cx="172.685" cy="126.304" r="23.889" fill="#03071D"/>
<g filter="url(#filter0_f_17_1089)">
<circle cx="165.615" cy="119.235" r="9.0193" fill="url(#paint0_linear_17_1089)" fill-opacity="0.9" style="mix-blend-mode:lighten"/>
</g>
<circle cx="93.8476" cy="126.304" r="23.889" fill="#03071D"/>
<g filter="url(#filter1_f_17_1089)">
<circle cx="86.7783" cy="119.235" r="9.0193" fill="url(#paint1_linear_17_1089)" fill-opacity="0.9" style="mix-blend-mode:lighten"/>
</g>
<path d="M68.7576 186.789C68.7576 162.933 87.6142 143.344 111.453 142.435L125.54 141.898L139.628 142.435C163.467 143.344 182.323 162.933 182.323 186.789C182.323 211.434 162.244 231.361 137.599 231.173L125.54 231.081L113.482 231.173C88.8367 231.361 68.7576 211.434 68.7576 186.789Z" fill="#DD73A6"/>
<ellipse cx="138.033" cy="186.819" rx="11.2021" ry="18.9276" transform="rotate(13.0869 138.033 186.819)" fill="#6A2F4B"/>
<ellipse cx="11.2021" cy="18.9276" rx="11.2021" ry="18.9276" transform="matrix(-0.974028 0.226429 0.226429 0.974028 110.666 165.847)" fill="#6A2F4B"/>
<path d="M190.644 62.4863C196.695 64.1998 227.306 80.0838 237.042 89.591C251.705 103.911 280.258 92.2059 278.344 71.7996C276.836 55.73 262.86 44.3107 251.575 36.8227C234.146 25.2589 194.302 23.6846 181.743 31.0527C169.183 38.4208 178.254 58.9772 190.644 62.4863Z" fill="#6A2F4B"/>
<path d="M281.326 277.044L240.253 289.122L240.69 290.52C244.17 301.659 255.938 307.951 267.134 304.659C278.33 301.366 284.819 289.706 281.716 278.456L281.326 277.044Z" fill="#C16290"/>
<path d="M226.486 278.589L185.413 290.667L185.85 292.065C189.33 303.204 201.099 309.496 212.294 306.204C223.49 302.912 229.979 291.251 226.876 280.001L226.486 278.589Z" fill="#DD73A6"/>
<path d="M206.373 212C206.373 216.247 205.021 220.383 202.514 223.81C200.006 227.238 196.472 229.778 192.425 231.063C188.377 232.347 184.025 232.311 180 230.957" stroke="#6A2F4B" stroke-width="6" stroke-linecap="round"/>
<defs>
<filter id="filter0_f_17_1089" x="152.596" y="106.216" width="26.0386" height="26.0386" filterUnits="userSpaceOnUse" color-interpolation-filters="sRGB">
<feFlood flood-opacity="0" result="BackgroundImageFix"/>
<feBlend mode="normal" in="SourceGraphic" in2="BackgroundImageFix" result="shape"/>
<feGaussianBlur stdDeviation="2" result="effect1_foregroundBlur_17_1089"/>
</filter>
<filter id="filter1_f_17_1089" x="73.759" y="106.216" width="26.0386" height="26.0386" filterUnits="userSpaceOnUse" color-interpolation-filters="sRGB">
<feFlood flood-opacity="0" result="BackgroundImageFix"/>
<feBlend mode="normal" in="SourceGraphic" in2="BackgroundImageFix" result="shape"/>
<feGaussianBlur stdDeviation="2" result="effect1_foregroundBlur_17_1089"/>
</filter>
<linearGradient id="paint0_linear_17_1089" x1="163.665" y1="111.678" x2="168.54" y2="126.06" gradientUnits="userSpaceOnUse">
<stop stop-color="white"/>
<stop offset="1" stop-color="white" stop-opacity="0"/>
</linearGradient>
<linearGradient id="paint1_linear_17_1089" x1="84.8282" y1="111.678" x2="89.7035" y2="126.06" gradientUnits="userSpaceOnUse">
<stop stop-color="white"/>
<stop offset="1" stop-color="white" stop-opacity="0"/>
</linearGradient>
</defs>
</svg>
