<?xml version="1.0" encoding="utf-8"?>
<!-- Generator: Adobe Illustrator 27.5.0, SVG Export Plug-In . SVG Version: 6.00 Build 0)  -->
<svg version="1.1" id="Capa_1" xmlns="http://www.w3.org/2000/svg" xmlns:xlink="http://www.w3.org/1999/xlink" x="0px" y="0px"
	 viewBox="0 0 2122 2122" style="enable-background:new 0 0 2122 2122;" xml:space="preserve">
<path style="fill:#F0ACB4;" d="M291.393,938.68c-13.303,7.374-29.807,12.314-50.453,15.109c-5.975,0.811-11.858,1.22-17.486,1.22
	c-37.684,0-60.297-18.275-72.636-33.608c-23.902-29.698-30.536-75.469-16.509-113.893c11.574-31.708,35.16-50.441,64.716-51.391
	c0.663-0.022,1.318-0.032,1.976-0.032c21.391,0.003,41.145,10.821,52.84,28.943c10.567,16.372,10.823,47.279,0.548,66.141
	c-4.514,8.285-13.12,18.163-28.477,18.163c-0.458,0-0.928-0.009-1.393-0.026c-9.754-0.373-19.186-6.007-25.233-15.067
	c-2.431-3.647-6.507-5.825-10.901-5.825c-2.582,0-5.091,0.76-7.257,2.197c-6.005,4.007-7.632,12.156-3.628,18.165
	c11.922,17.876,31.035,29.425,48.694,29.425c3.771,0,7.517-0.507,11.138-1.503c24.865-6.85,38.675-32.926,43.457-43.82
	c10.828-24.66,10.926-51.944,0.258-72.982c-16.592-32.734-46.945-51.096-82.865-49.964c-40.197,1.296-73.274,26.936-88.477,68.59
	c-17.328,47.462-9.199,102.141,20.709,139.298c22.814,28.356,55.118,43.342,93.416,43.342c6.718,0,13.656-0.477,20.623-1.418
	c15.51-2.1,29.226-5.447,41.927-10.237c0.209-0.08,0.36-0.266,0.397-0.487c1.557-9.737,3.418-19.72,5.528-29.669
	c0.051-0.239-0.041-0.485-0.239-0.631C291.87,938.58,291.61,938.565,291.393,938.68z"/>
<path style="fill:#F0ACB4;" d="M1637.211,446.159c-10.979,14.488-19.964,31.164-26.701,49.572
	c-4.237,11.552-7.637,23.98-10.105,36.94c-0.051,0.265,0.075,0.533,0.312,0.665c11.498,6.273,22.938,12.843,34.002,19.527
	c0.097,0.061,0.21,0.09,0.322,0.09c0.09,0,0.183-0.019,0.268-0.061c0.19-0.09,0.319-0.268,0.348-0.475
	c5.072-35.956,19.764-73.903,43.666-112.787c3.802-6.207,5.737-12.933,5.747-19.995c0.007-4.658-0.872-9.311-2.616-13.832
	c-0.068-0.176-0.21-0.309-0.388-0.368c-0.175-0.063-0.373-0.034-0.528,0.066C1664.268,416.466,1649.355,430.147,1637.211,446.159z"
	/>
<path style="fill:#F0ACB4;" d="M1582.375,523.596c0.09,0.046,0.19,0.071,0.287,0.071c0.09,0,0.183-0.019,0.265-0.061
	c0.178-0.083,0.305-0.242,0.344-0.434l0.19-0.882c0.414-1.946,0.828-3.893,1.306-5.871c7.527-31.186,20.156-58.626,37.534-81.559
	c13.196-17.42,29.379-32.368,48.095-44.429c0.168-0.107,0.275-0.292,0.285-0.492c0.009-0.202-0.078-0.395-0.237-0.519
	c-6.455-5.138-14.27-7.861-22.601-7.881c-0.957,0-1.932,0.036-2.897,0.107l-0.821,0.061c-0.012,0-0.022,0-0.034,0.003
	c-26.617,2.065-52.068,9.71-75.649,22.726c-21.172,11.688-40.48,27.712-55.834,46.341c-7.659,9.279-14.66,19.379-21.41,30.88
	c-0.092,0.158-0.11,0.348-0.051,0.521c0.061,0.173,0.192,0.309,0.363,0.375C1522.722,494.761,1553.291,508.568,1582.375,523.596z"/>
<path style="fill:#F0ACB4;" d="M1946.353,977.167c-18.105,0-35.51,7.793-47.754,21.381c-1.671,1.856-3.966,2.951-6.46,3.082
	c-2.46,0.149-4.892-0.713-6.751-2.387c-1.856-1.671-2.953-3.966-3.084-6.463c-0.132-2.495,0.716-4.892,2.387-6.75
	c12.07-13.423,28.516-22.67,46.309-26.039c0.166-0.031,0.312-0.129,0.405-0.273c0.092-0.141,0.124-0.314,0.087-0.477
	c-45.965-203.841-222.738-379.125-472.866-468.879c-0.161-0.053-0.339-0.046-0.492,0.032c-0.154,0.078-0.268,0.214-0.317,0.377
	c-5.693,19.267-8.582,37.842-8.587,55.206c-0.007,22.499,4.862,37.357,7.766,44.209c0.975,2.299,0.994,4.843,0.054,7.16
	c-0.938,2.314-2.724,4.127-5.026,5.098c-2.3,0.977-4.841,0.994-7.16,0.054c-2.314-0.94-4.127-2.724-5.099-5.026
	c-4.212-9.973-9.235-27.004-9.245-51.495c-0.008-29.827,7.903-78.268,45.635-139.652c3.803-6.207,5.737-12.933,5.746-19.993
	c0.007-4.662-0.875-9.315-2.619-13.832c-0.068-0.176-0.21-0.309-0.387-0.368c-0.173-0.059-0.37-0.034-0.529,0.065
	c-17.267,10.965-32.178,24.643-44.323,40.658c-10.977,14.483-19.961,31.158-26.702,49.569
	c-12.368,33.734-14.948,66.772-14.935,88.548c0,13.84,1.067,22.624,1.118,23.038c0.66,5.116-2.967,9.815-8.083,10.473
	c-5.099,0.634-9.812-2.967-10.475-8.1c-0.129-1.045-1.269-10.621-1.269-25.411c0.007-22.982,2.738-46.448,7.9-67.858
	c7.528-31.186,20.156-58.626,37.535-81.559c13.203-17.425,29.383-32.373,48.097-44.429c0.168-0.109,0.275-0.292,0.285-0.492
	c0.01-0.202-0.078-0.395-0.236-0.519c-6.46-5.138-14.276-7.861-22.602-7.881c-0.957,0-1.932,0.036-2.897,0.107l-0.875,0.066
	c-0.017,0-0.034,0.003-0.048,0.005c-26.594,2.07-52.022,9.715-75.581,22.719c-21.175,11.688-40.483,27.715-55.834,46.343
	c-30.207,36.587-45.949,80.492-61.172,122.948c-0.845,2.353-2.555,4.234-4.816,5.301c-2.263,1.062-4.804,1.181-7.15,0.341
	c-4.855-1.744-7.384-7.113-5.64-11.966l0.105-0.295c10.896-30.258,22.163-61.549,38.787-90.887c0.1-0.178,0.107-0.392,0.02-0.577
	c-0.09-0.185-0.263-0.314-0.465-0.346c-58.855-9.42-119.308-14.197-179.681-14.197c-209.016,0-394.384,53.428-536.062,154.506
	c-68.151,48.624-124.114,106.96-166.336,173.393c-42.663,67.128-70.383,141.116-82.385,219.902c-0.013,0.076-0.01,0.154,0.007,0.229
	c16.785,76.804,44.531,149.842,82.468,217.082c38.497,68.229,86.772,129.188,143.486,181.193c0.151,0.141,0.37,0.19,0.558,0.151
	c0.2-0.044,0.365-0.185,0.441-0.375c9.63-23.776,31.318-40.814,56.599-44.458c19.096-2.758,38.112,2.09,53.559,13.641
	c15.447,11.552,25.469,28.429,28.224,47.523c3.661,25.394-6.631,51.074-26.857,67.016c-0.161,0.126-0.251,0.326-0.236,0.531
	c0.012,0.205,0.124,0.39,0.297,0.492c25.983,15.756,53.24,30.002,81.011,42.343c104.273,46.344,218.377,71.859,348.833,78.007
	c20.648,0.974,41.703,1.461,63.301,1.461c87.184,0,183.189-7.995,296.667-24.545c131.086-22.47,294.718-61.832,397.417-167.673
	c31.63-41.15,57.089-85.257,75.669-131.103c0.119-0.292,0.002-0.624-0.27-0.779c-5.413-3.05-10.324-6.529-14.599-10.349
	c-1.864-1.661-2.969-3.951-3.113-6.446c-0.144-2.49,0.694-4.891,2.358-6.757c1.664-1.866,3.954-2.972,6.448-3.114
	c2.49-0.175,4.894,0.692,6.76,2.358c11.82,10.528,26.977,16.326,42.68,16.326c17.074,0,33.194-6.709,45.391-18.889
	c12.18-12.195,18.889-28.317,18.892-45.393V1041.45c-0.003-17.074-6.711-33.196-18.892-45.391
	C1979.552,983.878,1963.432,977.169,1946.353,977.167z"/>
<path style="fill:#F1B7BF;" d="M562.976,1289.264c7.712-10.314,10.947-23.011,9.108-35.756
	c-3.793-26.309-28.249-44.609-54.599-40.838c-26.309,3.795-44.628,28.292-40.833,54.602c1.837,12.745,8.529,24.015,18.841,31.727
	c8.426,6.3,18.441,9.613,28.775,9.613c2.316,0,4.65-0.166,6.984-0.502C543.997,1306.267,555.264,1299.578,562.976,1289.264z"/>
<path style="fill:#F1B7BF;" d="M647.619,1311.101c1.454,0,2.931-0.102,4.414-0.317c16.792-2.426,28.484-18.056,26.063-34.85
	c-2.422-16.794-18.085-28.448-34.85-26.071c-0.002,0-0.002,0-0.002,0c-16.792,2.426-28.484,18.061-26.063,34.855
	C619.39,1300.031,632.579,1311.101,647.619,1311.101z"/>
<path style="fill:#F1B7BF;" d="M642.513,1342.063c-15.713-11.751-35.055-16.682-54.487-13.88
	c-25.717,3.708-47.778,21.038-57.574,45.228c-4.884,12.054-6.492,25.184-4.648,37.968c5.271,36.556,36.76,62.982,72.665,62.982
	c3.474,0,6.994-0.248,10.531-0.755c12.697-1.832,24.765-7.031,34.901-15.021c20.58-16.224,31.047-42.343,27.32-68.175
	C668.423,1370.984,658.226,1353.814,642.513,1342.063z"/>
<path style="fill:#F19AA4;" d="M989.974,1719.042c-44.967-3.654-89.004-9.871-130.892-18.465c-0.307-0.063-0.631,0.127-0.723,0.438
	c-1.802,6.305-3.683,12.56-5.588,18.582c-2.28,7.191-4.707,14.412-7.211,21.457c-0.056,0.161-0.046,0.336,0.027,0.487
	c3.859,7.825,7.776,15.045,11.646,21.452c11.971,19.932,24.941,34.5,37.503,42.129c7.776,4.746,15.357,7.06,23.177,7.07
	c4.429-0.005,8.651-0.824,12.911-2.505c4.202-1.666,8.417-4.195,12.524-7.523c8.182-6.616,16.195-16.56,23.812-29.564
	c8.112-13.793,15.968-31.532,23.352-52.73c0.063-0.18,0.039-0.385-0.066-0.546C990.339,1719.164,990.167,1719.061,989.974,1719.042z
	"/>
<path style="fill:#F19AA4;" d="M1718.295,1525.8c-44.195,34.28-93.593,64.906-146.821,91.025c-0.18,0.088-0.307,0.258-0.338,0.453
	c-2.685,15.718-5.64,31.128-8.789,45.808c-0.035,0.156-0.008,0.321,0.078,0.458c11.742,19.201,24.389,33.257,36.577,40.658
	c7.771,4.741,15.352,7.054,23.177,7.069c4.419-0.005,8.643-0.824,12.914-2.51c4.2-1.656,8.411-4.19,12.521-7.517
	c8.188-6.616,16.199-16.565,23.812-29.569c13.306-22.626,25.939-55.902,36.536-96.233c3.995-15.172,7.807-31.664,11.328-49.028
	c0.051-0.253-0.061-0.516-0.283-0.653C1718.789,1525.624,1718.504,1525.639,1718.295,1525.8z"/>
<path style="fill:#F19AA4;" d="M1829.479,1387.402c-102.399,105.53-265.785,144.819-396.674,167.259
	c-217.702,31.742-472.094,50.051-708.094-54.835c-27.722-12.321-54.933-26.543-80.869-42.266c-0.224-0.141-0.507-0.122-0.711,0.039
	c-9.964,7.863-21.827,12.969-34.307,14.767c-39.43,5.691-76.1-21.764-81.785-61.164c-1.81-12.57-0.229-25.476,4.57-37.325
	c0.097-0.239,0.036-0.516-0.156-0.692c-113.478-104.058-191.488-241.573-225.592-397.688c-0.066-0.295-0.344-0.499-0.629-0.489
	c-0.3,0.009-0.551,0.232-0.597,0.528c-2.192,14.383-3.885,29.172-5.03,43.956c-0.036,0.477-0.068,0.955-0.1,1.435l-0.068,1.011
	c-0.424,5.756-0.763,11.722-1.043,18.239l-0.041,0.982c-0.058,1.298-0.115,2.597-0.161,3.897
	c-0.268,7.773-0.399,14.648-0.399,21.016c0,74.948,12.852,146.714,38.204,213.306c15.254,40.073,35.179,78.524,59.223,114.275
	c2.967,4.419,6.058,8.877,9.191,13.262c9.325,13.062,19.371,25.958,29.856,38.329c38.507,45.423,84.719,85.983,137.35,120.55
	c9.53,6.256,19.425,12.414,29.415,18.299c0.624,0.371,1.255,0.726,1.888,1.087c0.526,0.297,1.053,0.595,1.572,0.901
	c0.209,0.112,0.462,0.112,0.658-0.019c0.198-0.132,0.304-0.366,0.275-0.599c-1.267-10.061-2.003-16.994-2.329-20.229l-0.022-0.215
	c-0.494-5.135,3.279-9.715,8.414-10.212c2.483-0.229,4.916,0.507,6.846,2.095c1.929,1.589,3.123,3.834,3.362,6.32l0.124,1.237
	c0.085,0.828,0.217,2.075,0.395,3.688c0.319,2.928,0.865,7.713,1.637,13.9c1.357,10.86,3.679,28.029,7.021,48.161
	c5.883,35.454,16.136,87.055,31.591,131.547c10.631,30.738,22.901,55.142,35.478,70.572c7.769,9.578,15.832,16.112,23.964,19.42
	c4.394,1.788,8.752,2.66,13.32,2.665c7.581-0.01,14.928-2.178,22.465-6.636c7.213-4.278,14.48-10.695,21.596-19.075
	c12.451-14.616,25.003-36.175,36.302-62.344c20.828-48.092,32.141-98.548,32.614-100.672l0.112-0.511
	c1.096-5.033,6.088-8.268,11.13-7.152c5.04,1.101,8.248,6.095,7.145,11.162c-0.185,0.838-1.201,5.384-3.008,12.516
	c-0.041,0.161-0.014,0.336,0.076,0.482c0.09,0.146,0.236,0.243,0.404,0.277c71.186,14.524,146.981,21.89,225.391,21.89h0.08
	c8.046,0,16.706-0.107,26.472-0.321c1.878-0.044,3.749-0.097,5.623-0.151l2.234-0.063c6.439-0.185,13.052-0.429,19.657-0.726
	l1.902-0.083c1.89-0.083,3.781-0.166,5.667-0.263c9.62-0.497,18.139-1.018,26.039-1.603l2.041-0.166
	c7.666-0.58,15.483-1.257,23.905-2.071c2.064-0.195,4.12-0.409,6.175-0.619l1.542-0.161c6.187-0.634,12.465-1.33,19.188-2.134
	l2.811-0.336c1.435-0.166,2.87-0.336,4.299-0.516c9.167-1.16,17.416-2.285,25.218-3.445c0.604-0.092,1.203-0.19,1.803-0.287
	l1.435-0.224c7.278-1.111,14.643-2.304,21.89-3.557c2.453-0.424,4.897-0.858,7.342-1.296l0.195-0.034
	c6.246-1.121,12.543-2.309,18.716-3.523l2.36-0.462c1.391-0.268,2.784-0.536,4.17-0.824c1.011-0.204,2.015-0.423,3.018-0.643
	c0.811-0.175,1.62-0.356,2.436-0.526c0.171-0.034,0.317-0.137,0.407-0.288c0.09-0.146,0.115-0.326,0.066-0.492
	c-4.558-15.941-7.245-27.449-8.188-31.659l-0.049-0.214c-1.096-5.037,2.115-10.031,7.152-11.132
	c5.057-1.101,10.034,2.114,11.13,7.152l0.197,0.887c0.137,0.609,0.349,1.52,0.629,2.709c0.485,2.075,1.318,5.525,2.519,10.202
	c2.047,7.952,5.444,20.478,10.034,34.982c8.037,25.461,21.333,61.963,39.033,91.254c11.973,19.937,24.943,34.505,37.5,42.134
	c7.771,4.74,15.352,7.054,23.177,7.069c4.421-0.005,8.646-0.823,12.914-2.509c4.197-1.656,8.411-4.19,12.523-7.517
	c8.185-6.616,16.197-16.565,23.813-29.569c13.306-22.626,25.939-55.903,36.533-96.234c19.055-72.317,26.84-146.348,27.666-154.548
	c0.054-0.546,0.078-0.823,0.08-0.823c0,0,0,0,0,0.005c0.239-2.485,1.432-4.726,3.362-6.315c1.929-1.588,4.368-2.329,6.847-2.095
	c2.488,0.239,4.731,1.432,6.319,3.362c1.591,1.93,2.334,4.361,2.085,6.919c-0.209,2.119-2.178,21.535-6.333,49.188
	c-0.035,0.229,0.063,0.463,0.251,0.599c0.195,0.137,0.448,0.156,0.648,0.049c3.73-1.9,8.644-4.419,13.579-7.04
	c1.986-1.057,3.966-2.114,5.939-3.182c5.589-3.026,11.189-6.134,16.643-9.247l1.432-0.804c0.629-0.351,1.255-0.701,1.873-1.057
	c6.256-3.6,12.589-7.362,19.354-11.503c0.969-0.59,1.929-1.194,2.889-1.793l1.722-1.077c4.977-3.089,9.903-6.217,14.641-9.296
	c1.798-1.169,3.6-2.343,5.386-3.523c5.695-3.771,10.943-7.327,16.036-10.884l0.95-0.648c0.453-0.307,0.906-0.614,1.352-0.926
	c5.681-3.99,11.501-8.205,17.793-12.887c0.899-0.673,1.791-1.35,2.68-2.027l1.72-1.306c4.518-3.416,8.982-6.87,13.267-10.261
	l0.896-0.706c1.306-1.038,2.612-2.07,3.91-3.108c5.608-4.516,10.631-8.667,15.355-12.682l0.506-0.424
	c0.254-0.209,0.509-0.418,0.755-0.633c5.169-4.414,10.429-9.053,16.08-14.183c0.95-0.862,1.888-1.73,2.826-2.602l1.252-1.159
	c4.083-3.761,8.076-7.527,11.873-11.196l1.101-1.062c1.033-0.994,2.063-1.993,3.084-2.996c5.535-5.438,10.326-10.275,14.653-14.792
	l0.112-0.122c4.394-4.589,8.918-9.486,14.239-15.415c0.874-0.974,1.737-1.959,2.599-2.943l1.074-1.218
	c3.457-3.917,6.952-7.985,10.395-12.092l0.845-1.004c0.908-1.077,1.815-2.158,2.709-3.245c4.926-5.983,9.15-11.269,12.914-16.171
	c0.083-0.107,0.129-0.248,0.129-0.385c0-0.254-0.153-0.482-0.39-0.58C1829.922,1387.159,1829.654,1387.222,1829.479,1387.402z"/>
<path style="fill:#FFFFFF;" d="M457.907,740.315c-8.682,9.44-13.166,21.698-12.631,34.514c0.536,12.816,6.032,24.655,15.473,33.335
	c9.208,8.47,20.86,12.653,32.485,12.653c12.972,0,25.912-5.215,35.364-15.495c68.183-74.085,143.047-128.721,228.867-167.028
	c75.076-33.464,156.557-53.42,249.098-61.011c26.387-2.163,46.097-25.391,43.936-51.781c-2.163-26.387-25.371-46.083-51.781-43.937
	c-103.49,8.468-195.196,31.04-280.355,69.009C621.665,593.628,534.036,657.467,457.907,740.315z"/>
<path style="fill:#622B4C;" d="M440.684,437.504c-0.753-3.998-6.166-31.203-14.098-31.203h-0.024
	c-8.821,0.061-13.647,28.292-14.122,31.21l-0.202,0.202c-4.007,0.728-31.203,5.973-31.203,14.119
	c0,8.826,28.283,13.652,31.208,14.127l0.197,0.197c0.463,2.933,5.167,31.208,14.127,31.208c9.24,0,13.688-28.258,14.127-31.21
	l0.195-0.195c2.926-0.475,31.21-5.301,31.21-14.127c0-8.823-28.285-13.649-31.21-14.124L440.684,437.504z"/>
<path style="fill:#622B4C;" d="M1905.97,1706.501l-0.205-0.205c-0.75-3.995-6.168-31.206-14.1-31.206h-0.024
	c-8.821,0.063-13.647,28.297-14.122,31.211l-0.205,0.204c-4.007,0.731-31.201,5.973-31.201,14.12
	c0,8.823,28.28,13.646,31.206,14.124l0.2,0.2c0.463,2.929,5.167,31.211,14.126,31.211c9.245,0,13.691-28.273,14.13-31.215
	l0.195-0.195c2.933-0.477,31.208-5.301,31.208-14.124C1937.179,1711.802,1908.903,1706.978,1905.97,1706.501z"/>
<path style="fill:#622B4C;" d="M590.316,308.608c-0.746-3.956-10.025-51.68-23.065-51.68h-0.036
	c-14.478,0.1-22.453,47.664-23.101,51.688l-0.521,0.521c-3.976,0.723-51.685,9.698-51.685,23.101
	c0,14.48,47.661,22.458,51.69,23.106l0.516,0.516c0.631,4.037,8.399,51.688,23.106,51.688c15.177,0,22.509-47.627,23.106-51.691
	l0.514-0.514c4.03-0.648,51.691-8.626,51.691-23.106c0-14.478-47.661-22.458-51.691-23.106L590.316,308.608z"/>
<path style="fill:#622B4C;" d="M1753.6,835.435c-5.847,0-10.602,4.755-10.602,10.602v67.41
	c-0.002,10.551-4.153,20.516-11.686,28.066c-7.547,7.533-17.515,11.683-28.066,11.688c-10.553-0.005-20.521-4.156-28.068-11.688
	c-7.532-7.549-11.683-17.515-11.686-28.066v-67.41c0-5.847-4.755-10.602-10.602-10.602c-5.847,0-10.602,4.755-10.602,10.602v67.41
	c0.036,33.574,27.381,60.919,60.957,60.958c33.574-0.039,60.919-27.384,60.955-60.958v-67.41
	C1764.202,840.19,1759.447,835.435,1753.6,835.435z"/>
<path style="fill:#622B4C;" d="M1951.092,958.078c-11.254-51.488-30.57-101.675-57.947-150.039
	c-44.353-78.352-107.712-148.617-188.315-208.842c-16.483-12.315-33.53-24.05-51.054-35.245
	c2.738-29.769,13.781-68.22,42.02-114.201c5.88-9.555,8.617-20.007,8.608-30.115c-0.014-14.992-5.874-29.215-15.855-39.831
	c-9.95-10.616-24.33-17.621-40.703-17.597c-1.423,0-2.86,0.052-4.308,0.158l-0.02,0.001l-0.894,0.067l-0.023,0.002
	c-30.906,2.393-59.069,11.584-83.499,25.076c-24.437,13.496-45.167,31.271-61.408,50.969c-9.559,11.611-17.697,23.795-24.862,36.317
	c-2.644-0.972-5.285-1.949-7.942-2.902c6.51-17.014,15.5-35.522,27.741-55.452c5.88-9.555,8.617-20.007,8.608-30.115
	c-0.014-14.992-5.874-29.215-15.855-39.83c-9.951-10.616-24.33-17.62-40.704-17.597c-1.423,0-2.86,0.052-4.307,0.158l-0.021,0.001
	l-0.894,0.067l-0.022,0.001c-30.906,2.393-59.069,11.584-83.499,25.076c-24.438,13.496-45.167,31.271-61.409,50.969
	c-5.077,6.167-9.721,12.508-14.07,18.96c-62.013-10.353-125.982-15.674-191.025-15.674c-117.336,0-227.9,16.629-328.617,49.424
	c-97.697,31.812-183.928,78.049-256.297,137.425C401.762,679.618,331.604,787.585,299.11,908.388
	c-13.634,14.845-32.576,22.43-60.762,26.243c-5.123,0.695-10.133,1.046-14.894,1.046c-24.109,0-43.48-8.881-57.575-26.395
	c-19.502-24.23-25.016-63.354-13.41-95.144c8.854-24.262,25.608-38.004,47.177-38.698c0.428-0.013,0.887-0.02,1.347-0.02
	c15.024,0,28.364,7.324,36.605,20.093c6.126,9.492,7.243,32.771-0.186,46.408c-4.402,8.08-9.195,8.08-11.499,8.08l-0.656-0.013
	c-3.523-0.135-7.312-2.617-9.888-6.479c-6.027-9.033-16.114-14.426-26.984-14.426c-6.406,0-12.617,1.878-17.961,5.432
	c-14.895,9.938-18.925,30.111-9.01,44.987c12.269,18.39,35.726,38.033,64.782,38.033c5.507,0,10.982-0.739,16.272-2.197
	c23.146-6.378,43.567-26.31,56.025-54.685c13.128-29.899,13.053-63.356-0.199-89.496c-19.527-38.514-54.879-60.603-96.99-60.603
	c-1.233,0-2.478,0.019-3.722,0.058c-48.396,1.559-88.028,31.945-106.038,81.284c-19.596,53.688-10.251,115.726,23.808,158.049
	c26.232,32.599,64.758,50.553,108.48,50.553c7.582,0,15.391-0.536,23.211-1.593c13.011-1.761,24.93-4.369,35.995-7.735
	c-3.002,24.602-4.578,49.588-4.578,74.906c0,95.154,19.952,184.724,59.301,266.22c38.513,79.764,94.647,149.904,166.843,208.47
	c31.839,25.828,66.452,49.099,103.613,69.724c4.196,28.518,10.876,67.117,20.692,105.906c9.63,37.945,22.159,76.024,38.815,105.474
	c8.359,14.722,17.757,27.359,28.846,36.674c5.546,4.646,11.541,8.45,18.021,11.099c6.471,2.65,13.431,4.111,20.632,4.106
	c12.02,0.013,23.283-3.774,33.278-9.918c17.522-10.808,31.746-28.475,43.954-48.628c9.287-15.413,17.338-32.38,24.226-49.139
	c6.325,11.21,13.259,21.802,20.912,31.11c8.103,9.826,17.018,18.282,27.043,24.435c9.994,6.144,21.257,9.931,33.277,9.918
	c7.201,0.005,14.161-1.456,20.632-4.107c12.167-4.992,22.543-13.92,31.658-25.13c15.918-19.671,28.392-46.71,38.736-76.416
	c0.537-1.548,1.021-3.152,1.545-4.714c25.929,1.655,52.241,2.529,78.946,2.529c84.266,0,165.39-8.554,241.959-24.594
	c4.743,14.929,10.67,31.795,17.776,48.742c10.556,25.105,23.621,50.397,39.792,70.065c8.103,9.825,17.017,18.282,27.042,24.435
	c9.995,6.144,21.258,9.93,33.278,9.918c7.2,0.005,14.161-1.456,20.632-4.106c12.167-4.992,22.543-13.92,31.657-25.13
	c15.918-19.671,28.393-46.71,38.736-76.417c6.355-18.319,11.805-37.648,16.529-56.827c1.647,2.207,3.31,4.388,5.025,6.475
	c8.103,9.826,17.017,18.282,27.043,24.435c9.995,6.144,21.257,9.93,33.278,9.918c7.2,0.005,14.161-1.456,20.632-4.107
	c12.167-4.991,22.543-13.92,31.658-25.13c15.919-19.671,28.392-46.711,38.736-76.416c13.362-38.52,22.904-81.534,29.504-118.08
	c81.655-68.802,143.975-151.016,181.096-242.312c7.185,2.026,14.746,3.131,22.548,3.129v0c46.055-0.039,83.577-37.561,83.615-83.615
	v-142.623C2029.93,996.994,1994.941,960.595,1951.092,958.078z M1684.447,419.636c-0.01,6.57-1.72,13.245-5.655,19.668
	c-26.781,43.567-39.327,81.659-43.751,113.025c-11.156-6.738-22.5-13.252-34.025-19.542c2.256-11.838,5.487-24.318,10.078-36.844
	c6.164-16.841,14.747-33.753,26.613-49.406c11.384-15.01,25.814-28.857,44.162-40.509
	C1683.534,410.342,1684.454,414.961,1684.447,419.636z M1513.09,451.176c14.685-17.817,33.539-33.985,55.656-46.193
	c22.125-12.212,47.488-20.485,75.395-22.65l-0.022,0.001l0.874-0.065c0.966-0.071,1.916-0.105,2.851-0.105
	c8.688,0.019,16.175,2.941,22.214,7.743c-19.901,12.823-35.789,28.124-48.254,44.575c-19.878,26.232-31.227,55.209-37.644,81.79
	c-0.55,2.284-1.017,4.523-1.498,6.77c-29.272-15.125-59.628-28.83-90.926-41.069C1498.027,471.254,1505.035,460.934,1513.09,451.176
	z M286.159,968.925c-12.19,4.597-25.961,8.06-41.791,10.203c-6.994,0.945-13.852,1.413-20.538,1.413
	c-37.761,0-70.253-14.923-92.933-43.108c-29.771-36.994-37.859-91.435-20.609-138.694c15.113-41.403,47.978-66.894,87.912-68.18
	c1.037-0.032,2.074-0.048,3.101-0.048c34.327,0,63.098,17.929,79.191,49.671c11.391,22.468,9.671,49.8-0.273,72.449
	c-8.068,18.375-22.627,37.84-43.054,43.469c-3.667,1.01-7.338,1.48-10.971,1.48c-19.372,0-37.636-13.348-48.176-29.145
	c-3.822-5.734-2.278-13.476,3.454-17.301c2.128-1.415,4.533-2.093,6.911-2.093c4.03,0,7.982,1.946,10.384,5.546
	c5.763,8.638,15.175,14.941,25.725,15.344c0.476,0.019,0.953,0.027,1.419,0.027c38.305,0,44.403-60.55,28.452-85.265
	c-11.846-18.356-31.616-29.227-53.364-29.228c-0.665,0-1.328,0.01-1.997,0.03c-29.822,0.96-53.617,19.839-65.281,51.8
	c-14.1,38.621-7.425,84.638,16.609,114.499c12.946,16.088,35.701,33.84,73.122,33.84c5.532,0,11.381-0.388,17.569-1.226
	c20.397-2.759,36.971-7.588,50.672-15.181C289.61,949.053,287.755,958.951,286.159,968.925z M966.623,1772.282
	c-7.403,12.639-15.454,22.761-23.667,29.395c-4.106,3.327-8.228,5.795-12.36,7.429c-4.139,1.631-8.284,2.458-12.684,2.463
	c-7.844-0.012-15.299-2.37-22.851-6.978c-13.187-8.008-26.088-23.267-37.294-41.922c-4.094-6.776-7.964-13.988-11.619-21.408
	c2.644-7.444,5.062-14.676,7.216-21.475c2.107-6.662,3.965-12.903,5.594-18.603c42.248,8.676,85.978,14.821,130.964,18.482
	C983.076,1739.323,975.317,1757.501,966.623,1772.282z M1707.358,1575.281c-9.392,35.75-21.606,70.808-36.469,96.08
	c-7.403,12.64-15.454,22.761-23.667,29.395c-4.106,3.327-8.228,5.795-12.36,7.429c-4.139,1.632-8.284,2.458-12.683,2.464
	c-7.844-0.013-15.299-2.37-22.852-6.978c-12.831-7.792-25.379-22.479-36.371-40.45c3.45-16.079,6.355-31.551,8.795-45.836
	c53.485-26.242,102.727-56.806,146.927-91.094C1715.449,1542.215,1711.696,1558.818,1707.358,1575.281z M2010.011,1184.073
	c-0.003,17.499-7.139,33.367-18.708,44.95c-11.584,11.57-27.452,18.706-44.951,18.709l0,0c-16.186-0.004-30.96-6.102-42.265-16.172
	c-4.113-3.668-10.42-3.307-14.088,0.806c-3.668,4.113-3.307,10.421,0.806,14.089c4.476,3.995,9.436,7.452,14.706,10.425
	c-18.776,46.33-44.236,90.174-75.584,130.959l0,0c0,0,0,0.001-0.001,0.001c-4.187,5.447-8.508,10.823-12.902,16.16
	c-1.17,1.421-2.364,2.828-3.548,4.242c-3.402,4.06-6.863,8.086-10.384,12.079c-1.224,1.388-2.436,2.781-3.673,4.16
	c-4.652,5.186-9.373,10.331-14.223,15.401c-0.037,0.039-0.076,0.077-0.113,0.116c-4.776,4.991-9.675,9.906-14.637,14.782
	c-1.383,1.359-2.786,2.705-4.184,4.054c-3.897,3.765-7.851,7.494-11.859,11.188c-1.359,1.252-2.705,2.512-4.076,3.756
	c-5.271,4.781-10.612,9.516-16.066,14.173c-0.415,0.354-0.845,0.698-1.261,1.052c-5.034,4.28-10.158,8.496-15.343,12.669
	c-1.59,1.28-3.197,2.547-4.801,3.817c-4.367,3.455-8.786,6.871-13.256,10.25c-1.467,1.109-2.919,2.228-4.396,3.328
	c-5.847,4.354-11.763,8.653-17.778,12.876c-0.758,0.532-1.536,1.048-2.297,1.578c-5.277,3.676-10.624,7.297-16.027,10.872
	c-1.787,1.182-3.586,2.352-5.386,3.522c-4.827,3.139-9.704,6.234-14.627,9.29c-1.538,0.955-3.06,1.922-4.607,2.869
	c-6.373,3.898-12.814,7.734-19.341,11.493c-1.092,0.629-2.207,1.237-3.303,1.861c-5.491,3.13-11.036,6.209-16.632,9.239
	c-1.971,1.067-3.95,2.123-5.933,3.177c-4.491,2.387-9.017,4.739-13.572,7.061c0.001-0.009,0.003-0.017,0.004-0.025
	c4.417-29.384,6.332-49.157,6.345-49.29c0.529-5.485-3.488-10.361-8.974-10.89c-5.485-0.529-10.361,3.488-10.89,8.974
	c-0.001,0-0.026,0.259-0.081,0.81c-0.854,8.501-8.79,82.891-27.647,154.452c-9.392,35.75-21.605,70.808-36.469,96.08
	c-7.403,12.639-15.454,22.761-23.667,29.395c-4.106,3.327-8.228,5.795-12.36,7.429c-4.139,1.631-8.285,2.458-12.684,2.463
	c-7.844-0.013-15.299-2.37-22.852-6.978c-13.186-8.008-26.088-23.267-37.293-41.922c-16.885-27.947-30.13-63.114-38.971-91.123
	c-4.431-14.01-7.785-26.245-10.024-34.949c-1.119-4.352-1.96-7.822-2.518-10.191c-0.279-1.184-0.488-2.093-0.625-2.7
	c-0.137-0.607-0.198-0.884-0.198-0.885c-1.172-5.385-6.487-8.8-11.871-7.628c-5.385,1.172-8.8,6.486-7.628,11.871v0
	c0.042,0.168,2.809,12.899,8.244,31.915c0.005,0.015,0.01,0.031,0.014,0.047c-1.82,0.379-3.642,0.751-5.466,1.122
	c-2.167,0.441-4.35,0.853-6.525,1.281c-6.208,1.223-12.443,2.398-18.707,3.52c-2.508,0.45-5.016,0.9-7.532,1.333
	c-7.259,1.25-14.55,2.437-21.879,3.55c-1.082,0.165-2.153,0.349-3.236,0.51c-8.355,1.244-16.762,2.38-25.203,3.445
	c-2.363,0.298-4.739,0.568-7.109,0.852c-6.369,0.763-12.76,1.476-19.176,2.136c-2.57,0.264-5.138,0.533-7.716,0.781
	c-7.931,0.763-15.891,1.46-23.889,2.064c-0.682,0.051-1.358,0.118-2.04,0.168c-8.635,0.636-17.318,1.153-26.027,1.602
	c-2.516,0.129-5.041,0.232-7.563,0.346c-6.529,0.294-13.077,0.536-19.645,0.724c-2.617,0.075-5.231,0.158-7.855,0.216
	c-8.791,0.193-17.604,0.323-26.459,0.324c-0.032,0-0.065,0.001-0.097,0.001c-79.696,0-155.037-7.555-225.249-21.877
	c1.979-7.801,2.999-12.47,3.021-12.567c1.171-5.385-2.244-10.7-7.629-11.871c-5.385-1.172-10.7,2.244-11.871,7.629v0l-0.112,0.504
	c-1.202,5.424-12.43,54.04-32.577,100.563c-10.037,23.246-22.365,45.939-36.205,62.186c-6.904,8.133-14.149,14.621-21.439,18.941
	c-7.318,4.327-14.544,6.54-22.146,6.553c-4.541-0.006-8.812-0.885-13.084-2.624c-7.975-3.238-16.017-9.741-23.714-19.235
	c-13.501-16.561-25.523-41.9-35.376-70.381c-14.846-42.744-25.104-92.512-31.564-131.444c-3.235-19.473-5.532-36.25-7.018-48.137
	c-0.743-5.944-1.283-10.666-1.636-13.891c-0.177-1.613-0.307-2.852-0.392-3.682c-0.086-0.831-0.124-1.232-0.124-1.233
	c-0.53-5.485-5.406-9.503-10.891-8.974c-5.486,0.53-9.503,5.406-8.974,10.891c0.011,0.088,0.747,7.706,2.353,20.461
	c-1.146-0.667-2.317-1.311-3.458-1.983c-10.012-5.901-19.809-11.998-29.387-18.287c-52.675-34.593-98.699-74.994-137.219-120.433
	c-10.505-12.392-20.452-25.159-29.824-38.285c-3.124-4.375-6.183-8.791-9.179-13.245c-23.963-35.636-43.792-73.786-59.159-114.154
	c-24.972-65.598-38.163-137.05-38.163-213.081v-0.001c0-7.036,0.162-14.027,0.399-20.994c0.057-1.628,0.132-3.251,0.202-4.876
	c0.257-6.1,0.602-12.174,1.04-18.218c0.059-0.814,0.106-1.631,0.169-2.444c26.07-340.549,338.191-591.122,789.206-591.122
	c61.612,0,121.676,4.922,179.584,14.19c-16.704,29.48-27.974,60.84-38.935,91.277c-1.864,5.186,0.83,10.901,6.016,12.764
	c5.186,1.863,10.901-0.83,12.765-6.016h0c15.713-43.823,31.524-86.982,61.065-122.764c14.685-17.817,33.539-33.985,55.656-46.193
	c22.124-12.212,47.488-20.486,75.395-22.65l-0.022,0.001l0.874-0.066c0.966-0.071,1.916-0.105,2.851-0.105
	c8.689,0.019,16.175,2.941,22.214,7.744c-19.901,12.824-35.79,28.125-48.254,44.575c-19.878,26.232-31.227,55.209-37.644,81.791
	c-6.413,26.596-7.915,50.858-7.918,68.004c0.001,15.486,1.234,25.17,1.277,25.507c0.704,5.465,5.706,9.326,11.171,8.621
	c5.465-0.704,9.325-5.706,8.621-11.171l0,0l-0.005-0.044c-0.092-0.749-1.109-9.392-1.109-22.914
	c-0.012-21.296,2.555-54.669,14.896-88.334c6.164-16.841,14.747-33.753,26.613-49.406c11.384-15.011,25.814-28.858,44.162-40.51
	c1.664,4.313,2.584,8.932,2.577,13.608c-0.009,6.571-1.719,13.246-5.655,19.668c-34.999,56.935-45.737,104.562-45.726,139.978
	c0.008,22.34,4.227,39.743,9.293,51.738c2.147,5.075,8.001,7.45,13.077,5.303c5.075-2.147,7.45-8.001,5.303-13.077
	c-3.93-9.272-7.724-24.181-7.717-43.964c0.005-15.411,2.302-33.844,8.563-55.028c245.455,88.077,425.761,261.3,472.467,468.428
	c-18.344,3.473-34.656,12.891-46.655,26.236c-3.687,4.095-3.355,10.405,0.741,14.091c4.096,3.686,10.405,3.354,14.092-0.741v0
	c11.723-13.008,28.583-21.172,47.29-21.173l0,0c17.499,0.002,33.367,7.139,44.951,18.708c11.57,11.584,18.706,27.451,18.708,44.951
	V1184.073z"/>
</svg>
