<svg width="304" height="313" viewBox="0 0 304 313" fill="none" xmlns="http://www.w3.org/2000/svg">
<path d="M102.652 62.7291C96.6022 64.4426 65.9908 80.3266 56.2551 89.8338C41.5914 104.154 13.0389 92.4487 14.9533 72.0424C16.4608 55.9728 30.4364 44.5535 41.7221 37.0655C59.151 25.5017 98.9945 23.9274 111.554 31.2955C124.113 38.6636 115.043 59.22 102.652 62.7291Z" fill="#6A2F4B"/>
<path d="M257.261 180.768H287.777C292.257 180.768 295.889 177.136 295.889 172.656V172.656C295.889 168.176 292.257 164.545 287.777 164.545H283.657C280.172 164.545 277.348 161.72 277.348 158.235V158.235C277.348 154.751 280.172 151.926 283.657 151.926L286.618 151.926C291.738 151.926 295.889 147.776 295.889 142.656V139.823" stroke="#DD73A6" stroke-width="15" stroke-linecap="round"/>
<path d="M126.769 233.887C130.063 221.945 142.506 215.02 154.391 218.515C166.276 222.01 172.99 234.568 169.295 246.392L155.457 290.681C151.976 301.82 140.208 308.112 129.012 304.819C117.816 301.527 111.327 289.867 114.431 278.617L126.769 233.887Z" fill="#DD73A6"/>
<path d="M225.85 246.851C221.961 235.089 228.466 222.422 240.291 218.731C252.117 215.04 264.672 221.758 268.164 233.644L281.24 278.163C284.529 289.36 278.234 301.127 267.094 304.604C255.954 308.081 244.083 301.984 240.419 290.904L225.85 246.851Z" fill="#DD73A6"/>
<path d="M53.0707 233.887C56.3649 221.945 68.8074 215.02 80.6925 218.515C92.5775 222.01 99.2913 234.568 95.5967 246.392L81.7585 290.681C78.2781 301.82 66.51 308.112 55.3141 304.819C44.1181 301.527 37.629 289.867 40.7322 278.617L53.0707 233.887Z" fill="#FFB1D7"/>
<path d="M41.1221 277.286L82.1952 289.364L81.7583 290.763C78.278 301.902 66.51 308.194 55.3141 304.901C44.1181 301.609 37.6291 289.949 40.7324 278.699L41.1221 277.286Z" fill="#DD73A6"/>
<path d="M114.502 278.059L155.576 290.137L155.139 291.536C151.658 302.674 139.89 308.966 128.694 305.674C117.498 302.382 111.009 290.721 114.113 279.472L114.502 278.059Z" fill="#C16290"/>
<path d="M170.86 246.851C166.97 235.089 173.476 222.422 185.301 218.731C197.127 215.04 209.682 221.758 213.173 233.644L226.25 278.163C229.539 289.36 223.244 301.127 212.104 304.604C200.964 308.081 189.093 301.984 185.429 290.904L170.86 246.851Z" fill="#FFB1D7"/>
<path d="M48.3008 129.969C49.8 86.3429 85.6008 51.7514 129.253 51.7514H197.538C241.191 51.7514 276.991 86.343 278.49 129.97L280.649 192.783C282.223 238.582 245.522 276.565 199.697 276.565H127.094C81.2689 276.565 44.5685 238.582 46.1423 192.783L48.3008 129.969Z" fill="#FFB1D7"/>
<ellipse cx="176.915" cy="123.213" rx="33.9925" ry="39.0141" fill="#FFB1D7"/>
<ellipse cx="33.9925" cy="39.0141" rx="33.9925" ry="39.0141" transform="matrix(-1 0 0 1 123.609 84.1988)" fill="#FFB1D7"/>
<ellipse cx="176.143" cy="121.668" rx="33.9925" ry="39.0141" fill="#F2F2F2"/>
<ellipse cx="33.9925" cy="39.0141" rx="33.9925" ry="39.0141" transform="matrix(-1 0 0 1 124.382 82.6537)" fill="#F2F2F2"/>
<circle cx="172.685" cy="126.547" r="23.889" fill="#03071D"/>
<g filter="url(#filter0_f_17_1474)">
<circle cx="165.615" cy="119.478" r="9.0193" fill="url(#paint0_linear_17_1474)" fill-opacity="0.9" style="mix-blend-mode:lighten"/>
</g>
<circle cx="93.8476" cy="126.547" r="23.889" fill="#03071D"/>
<g filter="url(#filter1_f_17_1474)">
<circle cx="86.7783" cy="119.478" r="9.0193" fill="url(#paint1_linear_17_1474)" fill-opacity="0.9" style="mix-blend-mode:lighten"/>
</g>
<path d="M68.7576 187.031C68.7576 163.176 87.6142 143.586 111.453 142.678L125.54 142.141L139.628 142.678C163.467 143.586 182.323 163.176 182.323 187.031C182.323 211.677 162.244 231.604 137.599 231.416L125.54 231.324L113.482 231.416C88.8367 231.604 68.7576 211.677 68.7576 187.031Z" fill="#DD73A6"/>
<ellipse cx="138.033" cy="187.062" rx="11.2021" ry="18.9276" transform="rotate(13.0869 138.033 187.062)" fill="#6A2F4B"/>
<ellipse cx="11.2021" cy="18.9276" rx="11.2021" ry="18.9276" transform="matrix(-0.974028 0.226429 0.226429 0.974028 110.666 166.09)" fill="#6A2F4B"/>
<path d="M281.326 277.286L240.253 289.364L240.69 290.763C244.17 301.902 255.938 308.194 267.134 304.901C278.33 301.609 284.819 289.949 281.716 278.699L281.326 277.286Z" fill="#C16290"/>
<path d="M226.486 278.832L185.413 290.91L185.85 292.308C189.33 303.447 201.099 309.739 212.294 306.447C223.49 303.154 229.979 291.494 226.876 280.244L226.486 278.832Z" fill="#DD73A6"/>
<path d="M177.861 228.489C178.96 224.387 181.337 220.741 184.646 218.08C187.955 215.419 192.026 213.88 196.268 213.686C200.51 213.493 204.704 214.655 208.242 217.004" stroke="#6A2F4B" stroke-width="6" stroke-linecap="round"/>
<circle cx="191" cy="158" r="8" fill="#8BDEFF"/>
<circle cx="199" cy="153" r="8" fill="#8BDEFF"/>
<circle cx="62" cy="148" r="8" fill="#8BDEFF"/>
<path d="M78 155.748C78 160.166 74.4183 163.748 70 163.748C65.5817 163.748 62 160.166 62 155.748C62 151.33 65.5817 147.748 70 147.748C74.4183 147.748 78 151.33 78 155.748Z" fill="#8BDEFF"/>
<circle cx="191" cy="74" r="19" fill="#FFB1D7"/>
<path d="M190.644 62.7291C196.695 64.4426 227.306 80.3266 237.042 89.8338C251.705 104.154 280.258 92.4487 278.344 72.0424C276.836 55.9728 262.86 44.5535 251.575 37.0655C234.146 25.5017 194.302 23.9274 181.743 31.2955C169.183 38.6636 178.254 59.22 190.644 62.7291Z" fill="#6A2F4B"/>
<path d="M93.1287 63.753C95.7303 67.611 96.8257 72.2895 96.2072 76.9014C95.5886 81.5133 93.2992 85.7379 89.773 88.7741C86.2468 91.8102 81.729 93.4468 77.0763 93.3735C72.4237 93.3001 67.9597 91.522 64.531 88.3762L77.3758 74.3758L93.1287 63.753Z" fill="#FFB1D7"/>
<path d="M206.775 90.2605C207.405 89.7746 207.816 89.0584 207.918 88.2693C208.02 87.4802 207.804 86.6829 207.318 86.0529C206.833 85.4228 206.116 85.0115 205.327 84.9096C204.538 84.8076 203.741 85.0232 203.111 85.5091C202.685 85.8371 202.245 86.1448 201.79 86.431C199.217 88.056 196.2 88.9685 193.158 89.0414C189.578 89.1385 185.978 88.0617 183.04 86.0147C180.537 84.2828 178.517 81.8636 177.258 79.0924C177.036 78.6038 176.837 78.1046 176.661 77.597C176.401 76.8449 175.854 76.2268 175.138 75.8787C174.423 75.5306 173.598 75.481 172.846 75.7408C172.094 76.0005 171.476 76.5484 171.128 77.2639C170.78 77.9793 170.73 78.8038 170.99 79.5558C171.227 80.2425 171.497 80.9179 171.798 81.579C173.5 85.3285 176.233 88.6013 179.619 90.9445C183.595 93.714 188.465 95.1708 193.309 95.0395C197.425 94.9407 201.507 93.7064 204.988 91.5077C205.603 91.1205 206.199 90.7041 206.775 90.2605Z" fill="#6A2F4B"/>
<path d="M99.1918 78.8669C99.4425 78.1118 99.383 77.288 99.0264 76.5768C98.6698 75.8656 98.0452 75.3251 97.2901 75.0744C96.535 74.8236 95.7112 74.8831 95 75.2397C94.2887 75.5964 93.7483 76.2209 93.4975 76.976C93.3283 77.4857 93.1349 77.9873 92.9182 78.4785C91.6934 81.2645 89.7022 83.7078 87.2203 85.4694C84.3064 87.5514 80.72 88.6712 77.139 88.617C74.0957 88.5804 71.0681 87.7041 68.4757 86.1099C68.018 85.8292 67.5737 85.5268 67.1445 85.2039C66.5086 84.7256 65.7088 84.5195 64.921 84.6309C64.1332 84.7423 63.4219 85.1621 62.9436 85.798C62.4653 86.4338 62.2592 87.2336 62.3706 88.0214C62.482 88.8092 62.9018 89.5205 63.5376 89.9988C64.1182 90.4355 64.7194 90.8447 65.3387 91.2245C68.8463 93.3815 72.9422 94.5669 77.0597 94.6165C81.9046 94.6897 86.7566 93.1749 90.6991 90.358C94.057 87.9745 96.7508 84.6692 98.408 80.8997C98.7012 80.235 98.9628 79.5564 99.1918 78.8669Z" fill="#6A2F4B"/>
<defs>
<filter id="filter0_f_17_1474" x="152.596" y="106.458" width="26.0386" height="26.0386" filterUnits="userSpaceOnUse" color-interpolation-filters="sRGB">
<feFlood flood-opacity="0" result="BackgroundImageFix"/>
<feBlend mode="normal" in="SourceGraphic" in2="BackgroundImageFix" result="shape"/>
<feGaussianBlur stdDeviation="2" result="effect1_foregroundBlur_17_1474"/>
</filter>
<filter id="filter1_f_17_1474" x="73.759" y="106.458" width="26.0386" height="26.0386" filterUnits="userSpaceOnUse" color-interpolation-filters="sRGB">
<feFlood flood-opacity="0" result="BackgroundImageFix"/>
<feBlend mode="normal" in="SourceGraphic" in2="BackgroundImageFix" result="shape"/>
<feGaussianBlur stdDeviation="2" result="effect1_foregroundBlur_17_1474"/>
</filter>
<linearGradient id="paint0_linear_17_1474" x1="163.665" y1="111.921" x2="168.54" y2="126.303" gradientUnits="userSpaceOnUse">
<stop stop-color="white"/>
<stop offset="1" stop-color="white" stop-opacity="0"/>
</linearGradient>
<linearGradient id="paint1_linear_17_1474" x1="84.8282" y1="111.921" x2="89.7035" y2="126.303" gradientUnits="userSpaceOnUse">
<stop stop-color="white"/>
<stop offset="1" stop-color="white" stop-opacity="0"/>
</linearGradient>
</defs>
</svg>
