<svg width="304" height="313" viewBox="0 0 304 313" fill="none" xmlns="http://www.w3.org/2000/svg">
<path d="M102.652 62.4863C96.6022 64.1998 65.9908 80.0838 56.2551 89.591C41.5914 103.911 13.0389 92.2059 14.9533 71.7996C16.4608 55.73 30.4364 44.3107 41.7221 36.8227C59.151 25.2589 98.9945 23.6846 111.554 31.0527C124.113 38.4208 115.043 58.9772 102.652 62.4863Z" fill="#6A2F4B"/>
<path d="M257.261 180.525H287.777C292.257 180.525 295.889 176.894 295.889 172.414V172.414C295.889 167.934 292.257 164.302 287.777 164.302H283.657C280.172 164.302 277.348 161.477 277.348 157.993V157.993C277.348 154.508 280.172 151.683 283.657 151.683L286.618 151.683C291.738 151.683 295.889 147.533 295.889 142.413V139.58" stroke="#DD73A6" stroke-width="15" stroke-linecap="round"/>
<path d="M53.0707 233.644C56.3649 221.702 68.8074 214.778 80.6925 218.273C92.5775 221.767 99.2913 234.325 95.5967 246.149L81.7585 290.438C78.2781 301.577 66.5101 307.869 55.3141 304.577C44.1181 301.284 37.629 289.624 40.7322 278.374L53.0707 233.644Z" fill="#FFB1D7"/>
<path d="M40.7324 278.456C40.9466 277.68 41.7553 277.23 42.5278 277.457L80.7896 288.708C81.5621 288.935 81.9984 289.752 81.7583 290.52C78.2781 301.659 66.51 307.951 55.3141 304.659C44.1181 301.366 37.6291 289.706 40.7324 278.456Z" fill="#DD73A6"/>
<path d="M225.85 246.608C221.961 234.846 228.466 222.179 240.291 218.488C252.117 214.797 264.672 221.515 268.164 233.401L281.24 277.921C284.529 289.118 278.234 300.884 267.094 304.361C255.954 307.838 244.083 301.742 240.419 290.662L225.85 246.608Z" fill="#DD73A6"/>
<path d="M281.716 278.456C281.501 277.68 280.693 277.23 279.92 277.457L241.658 288.708C240.886 288.935 240.45 289.752 240.69 290.52C244.17 301.659 255.938 307.951 267.134 304.659C278.33 301.366 284.819 289.706 281.716 278.456Z" fill="#C16290"/>
<path d="M126.769 233.644C130.063 221.702 142.506 214.778 154.391 218.273C166.276 221.767 172.99 234.325 169.295 246.149L155.457 290.438C151.976 301.577 140.208 307.869 129.012 304.577C117.816 301.284 111.327 289.624 114.431 278.374L126.769 233.644Z" fill="#DD73A6"/>
<path d="M114.113 279.229C114.327 278.453 115.136 278.002 115.908 278.23L154.17 289.481C154.942 289.708 155.379 290.524 155.139 291.293C151.658 302.432 139.89 308.723 128.694 305.431C117.498 302.139 111.009 290.479 114.113 279.229Z" fill="#C16290"/>
<path d="M48.3008 129.727C49.8 86.1001 85.6008 51.5086 129.253 51.5086H197.538C241.191 51.5086 276.991 86.1002 278.49 129.727L280.649 192.541C282.223 238.339 245.522 276.322 199.697 276.322H127.094C81.2689 276.322 44.5685 238.339 46.1423 192.541L48.3008 129.727Z" fill="#FFB1D7"/>
<ellipse cx="176.915" cy="122.97" rx="33.9925" ry="39.0141" fill="#FFB1D7"/>
<ellipse cx="33.9925" cy="39.0141" rx="33.9925" ry="39.0141" transform="matrix(-1 0 0 1 123.609 83.956)" fill="#FFB1D7"/>
<ellipse cx="176.143" cy="121.425" rx="33.9925" ry="39.0141" fill="#F2F2F2"/>
<circle cx="172.685" cy="126.304" r="23.889" fill="#03071D"/>
<g filter="url(#filter0_f_80_1074)">
<circle cx="165.615" cy="119.235" r="9.0193" fill="url(#paint0_linear_80_1074)" fill-opacity="0.9" style="mix-blend-mode:lighten"/>
</g>
<ellipse cx="33.9925" cy="39.0141" rx="33.9925" ry="39.0141" transform="matrix(-1 0 0 1 124.382 82.4109)" fill="#F2F2F2"/>
<circle cx="93.8476" cy="126.304" r="23.889" fill="#03071D"/>
<g filter="url(#filter1_f_80_1074)">
<circle cx="86.7784" cy="119.235" r="9.0193" fill="url(#paint1_linear_80_1074)" fill-opacity="0.9" style="mix-blend-mode:lighten"/>
</g>
<path d="M68.7576 186.789C68.7576 162.933 87.6142 143.344 111.453 142.435L125.54 141.898L139.628 142.435C163.467 143.344 182.323 162.933 182.323 186.789C182.323 211.434 162.244 231.361 137.599 231.173L125.54 231.081L113.482 231.173C88.8367 231.361 68.7576 211.434 68.7576 186.789Z" fill="#DD73A6"/>
<path d="M148.944 189.356C146.577 199.538 139.774 206.656 133.748 205.255C127.722 203.855 124.755 194.465 127.122 184.283C129.489 174.101 136.293 166.983 142.319 168.383C148.345 169.784 151.311 179.174 148.944 189.356Z" fill="#6A2F4B"/>
<path d="M93.1298 189.356C95.4967 199.538 102.301 206.656 108.327 205.255C114.353 203.855 117.319 194.465 114.952 184.283C112.585 174.101 105.781 166.983 99.7551 168.383C93.7291 169.784 90.7628 179.174 93.1298 189.356Z" fill="#6A2F4B"/>
<path d="M199 144.514C203.418 144.514 207 148.096 207 152.514C207 156.932 203.418 160.514 199 160.514C198.014 160.514 197.07 160.335 196.197 160.008C194.9 162.675 192.165 164.514 189 164.514C184.582 164.514 181 160.932 181 156.514C181 152.096 184.582 148.514 189 148.514C189.986 148.514 190.93 148.693 191.802 149.019C193.099 146.352 195.835 144.514 199 144.514Z" fill="#8BDEFF"/>
<path d="M62 139.514C66.3338 139.514 69.8598 142.961 69.9932 147.262C69.9954 147.262 69.9977 147.262 70 147.262C74.4182 147.262 77.9998 150.844 78 155.262C78 159.68 74.4183 163.262 70 163.262C65.6656 163.262 62.1383 159.815 62.0059 155.513L62 155.514C57.5817 155.514 54 151.932 54 147.514C54.0002 143.096 57.5818 139.514 62 139.514Z" fill="#8BDEFF"/>
<circle cx="191" cy="73.5144" r="19" fill="#FFB1D7"/>
<path d="M206.937 89.7749C207.567 89.289 207.978 88.5728 208.08 87.7837C208.182 86.9946 207.966 86.1973 207.48 85.5673C206.995 84.9372 206.278 84.5259 205.489 84.424C204.7 84.322 203.903 84.5377 203.273 85.0235C202.848 85.3515 202.407 85.6592 201.952 85.9454C199.379 87.5704 196.362 88.4829 193.32 88.5558C189.74 88.6529 186.14 87.5761 183.202 85.5291C180.699 83.7972 178.679 81.378 177.42 78.6068C177.198 78.1182 176.999 77.619 176.823 77.1114C176.563 76.3593 176.016 75.7413 175.3 75.3932C174.585 75.045 173.76 74.9954 173.008 75.2552C172.256 75.5149 171.638 76.0628 171.29 76.7783C170.942 77.4937 170.892 78.3182 171.152 79.0702C171.389 79.7569 171.659 80.4323 171.96 81.0934C173.662 84.8429 176.395 88.1157 179.781 90.4589C183.757 93.2284 188.627 94.6852 193.471 94.5539C197.587 94.4551 201.669 93.2208 205.15 91.0221C205.765 90.6349 206.361 90.2186 206.937 89.7749Z" fill="#6A2F4B"/>
<path d="M93.1287 63.2674C95.7303 67.1254 96.8257 71.8039 96.2072 76.4158C95.5886 81.0277 93.2992 85.2523 89.773 88.2885C86.2468 91.3246 81.729 92.9612 77.0763 92.8879C72.4237 92.8145 67.9597 91.0364 64.531 87.8906L77.3758 73.8902L93.1287 63.2674Z" fill="#FFB1D7"/>
<path d="M99.1918 76.7714C99.4425 76.0163 99.383 75.1925 99.0264 74.4812C98.6698 73.77 98.0452 73.2295 97.2901 72.9788C96.535 72.728 95.7112 72.7875 95 73.1441C94.2887 73.5008 93.7483 74.1253 93.4975 74.8805C93.3283 75.3902 93.1349 75.8917 92.9182 76.3829C91.6934 79.1689 89.7022 81.6122 87.2203 83.3738C84.3064 85.4559 80.72 86.5756 77.139 86.5214C74.0957 86.4848 71.0681 85.6085 68.4757 84.0143C68.018 83.7336 67.5737 83.4312 67.1445 83.1084C66.5086 82.6301 65.7088 82.4239 64.921 82.5353C64.1332 82.6467 63.4219 83.0665 62.9436 83.7024C62.4653 84.3382 62.2592 85.138 62.3706 85.9258C62.482 86.7136 62.9018 87.4249 63.5376 87.9032C64.1182 88.3399 64.7194 88.7491 65.3387 89.1289C68.8463 91.2859 72.9422 92.4713 77.0597 92.5209C81.9046 92.5942 86.7566 91.0793 90.6991 88.2624C94.057 85.8789 96.7508 82.5736 98.408 78.8041C98.7012 78.1394 98.9628 77.4608 99.1918 76.7714Z" fill="#6A2F4B"/>
<path d="M190.644 62.4863C196.695 64.1998 227.306 80.0838 237.042 89.591C251.705 103.911 280.258 92.2059 278.344 71.7996C276.836 55.73 262.86 44.3107 251.575 36.8227C234.146 25.2589 194.302 23.6846 181.743 31.0527C169.183 38.4208 178.254 58.9772 190.644 62.4863Z" fill="#6A2F4B"/>
<path d="M170.86 246.608C166.97 234.846 173.476 222.179 185.301 218.488C197.127 214.797 209.682 221.515 213.173 233.401L226.25 277.921C229.539 289.118 223.244 300.884 212.104 304.361C200.964 307.838 189.093 301.742 185.429 290.662L170.86 246.608Z" fill="#FFB1D7"/>
<path d="M226.876 280.001C226.662 279.225 225.853 278.775 225.081 279.002L186.819 290.253C186.046 290.481 185.61 291.297 185.85 292.065C189.33 303.204 201.099 309.496 212.294 306.204C223.49 302.912 229.979 291.251 226.876 280.001Z" fill="#DD73A6"/>
<circle cx="204" cy="221" r="15" fill="#6A2F4B"/>
<defs>
<filter id="filter0_f_80_1074" x="152.596" y="106.216" width="26.0386" height="26.0386" filterUnits="userSpaceOnUse" color-interpolation-filters="sRGB">
<feFlood flood-opacity="0" result="BackgroundImageFix"/>
<feBlend mode="normal" in="SourceGraphic" in2="BackgroundImageFix" result="shape"/>
<feGaussianBlur stdDeviation="2" result="effect1_foregroundBlur_80_1074"/>
</filter>
<filter id="filter1_f_80_1074" x="73.7591" y="106.216" width="26.0386" height="26.0386" filterUnits="userSpaceOnUse" color-interpolation-filters="sRGB">
<feFlood flood-opacity="0" result="BackgroundImageFix"/>
<feBlend mode="normal" in="SourceGraphic" in2="BackgroundImageFix" result="shape"/>
<feGaussianBlur stdDeviation="2" result="effect1_foregroundBlur_80_1074"/>
</filter>
<linearGradient id="paint0_linear_80_1074" x1="163.665" y1="111.678" x2="168.54" y2="126.06" gradientUnits="userSpaceOnUse">
<stop stop-color="white"/>
<stop offset="1" stop-color="white" stop-opacity="0"/>
</linearGradient>
<linearGradient id="paint1_linear_80_1074" x1="84.8283" y1="111.678" x2="89.7036" y2="126.06" gradientUnits="userSpaceOnUse">
<stop stop-color="white"/>
<stop offset="1" stop-color="white" stop-opacity="0"/>
</linearGradient>
</defs>
</svg>
